<svg xmlns="http://www.w3.org/2000/svg" xmlns:xlink="http://www.w3.org/1999/xlink" width="940" zoomAndPan="magnify" viewBox="0 0 705 591.000005" height="788" preserveAspectRatio="xMidYMid meet" version="1.0"><defs><filter x="0%" y="0%" width="100%" height="100%" id="673f1f8a3d"><feColorMatrix values="0 0 0 0 1 0 0 0 0 1 0 0 0 0 1 0 0 0 1 0" color-interpolation-filters="sRGB"/></filter><g/><clipPath id="330cdf62f9"><path d="M 0.59375 0 L 704.402344 0 L 704.402344 590 L 0.59375 590 Z M 0.59375 0 " clip-rule="nonzero"/></clipPath><mask id="d79571bf32"><g filter="url(#673f1f8a3d)"><rect x="-70.5" width="846" fill="#000000" y="-59.100001" height="709.200006" fill-opacity="0.3"/></g></mask><clipPath id="470a2cbdc5"><path d="M 0.539062 255 L 452.414062 255 L 452.414062 343 L 0.539062 343 Z M 0.539062 255 " clip-rule="nonzero"/></clipPath><clipPath id="342d3e1808"><path d="M 9 346 L 444 346 L 444 367.71875 L 9 367.71875 Z M 9 346 " clip-rule="nonzero"/></clipPath><clipPath id="57d92b3fd5"><rect x="0" width="453" y="0" height="372"/></clipPath><clipPath id="ea69c26aac"><path d="M 116.660156 94.96875 L 593 94.96875 L 593 458.320312 L 116.660156 458.320312 Z M 116.660156 94.96875 " clip-rule="nonzero"/></clipPath><clipPath id="03c4cf57bf"><path d="M 144.363281 94.96875 L 564.546875 94.96875 C 571.890625 94.96875 578.9375 97.886719 584.132812 103.082031 C 589.328125 108.277344 592.25 115.324219 592.25 122.671875 L 592.25 430.617188 C 592.25 437.964844 589.328125 445.011719 584.132812 450.207031 C 578.9375 455.402344 571.890625 458.320312 564.546875 458.320312 L 144.363281 458.320312 C 137.015625 458.320312 129.96875 455.402344 124.773438 450.207031 C 119.578125 445.011719 116.660156 437.964844 116.660156 430.617188 L 116.660156 122.671875 C 116.660156 115.324219 119.578125 108.277344 124.773438 103.082031 C 129.96875 97.886719 137.015625 94.96875 144.363281 94.96875 Z M 144.363281 94.96875 " clip-rule="nonzero"/></clipPath><mask id="b5a7577a85"><g filter="url(#673f1f8a3d)"><rect x="-70.5" width="846" fill="#000000" y="-59.100001" height="709.200006" fill-opacity="0.3"/></g></mask><clipPath id="8ba52835da"><path d="M 31 3.4375 L 422 3.4375 L 422 251 L 31 251 Z M 31 3.4375 " clip-rule="nonzero"/></clipPath><clipPath id="7ec30807eb"><path d="M 0.539062 254 L 452.414062 254 L 452.414062 343 L 0.539062 343 Z M 0.539062 254 " clip-rule="nonzero"/></clipPath><clipPath id="44c8d932cf"><path d="M 9 345 L 444 345 L 444 367.320312 L 9 367.320312 Z M 9 345 " clip-rule="nonzero"/></clipPath><clipPath id="2044f70aad"><rect x="0" width="453" y="0" height="372"/></clipPath><clipPath id="50f45462ee"><path d="M 112.75 441.210938 L 590.023438 441.210938 L 590.023438 472.132812 L 112.75 472.132812 Z M 112.75 441.210938 " clip-rule="nonzero"/></clipPath><clipPath id="0a260d4875"><path d="M 128.214844 441.210938 L 574.554688 441.210938 C 583.09375 441.210938 590.015625 448.132812 590.015625 456.671875 C 590.015625 465.210938 583.09375 472.132812 574.554688 472.132812 L 128.214844 472.132812 C 119.675781 472.132812 112.75 465.210938 112.75 456.671875 C 112.75 448.132812 119.675781 441.210938 128.214844 441.210938 Z M 128.214844 441.210938 " clip-rule="nonzero"/></clipPath><mask id="d168b9c788"><g filter="url(#673f1f8a3d)"><rect x="-70.5" width="846" fill="#000000" y="-59.100001" height="709.200006" fill-opacity="0.3"/></g></mask><clipPath id="572d00d94b"><path d="M 37 19 L 154.867188 19 L 154.867188 101 L 37 101 Z M 37 19 " clip-rule="nonzero"/></clipPath><clipPath id="c5d0a93a4e"><path d="M 0.136719 63 L 80 63 L 80 138 L 0.136719 138 Z M 0.136719 63 " clip-rule="nonzero"/></clipPath><clipPath id="27d5aeea0e"><path d="M 14 0.898438 L 148 0.898438 L 148 138.667969 L 14 138.667969 Z M 14 0.898438 " clip-rule="nonzero"/></clipPath><clipPath id="11e8968875"><rect x="0" width="155" y="0" height="140"/></clipPath><mask id="9c194e8efa"><g filter="url(#673f1f8a3d)"><rect x="-70.5" width="846" fill="#000000" y="-59.100001" height="709.200006" fill-opacity="0.3"/></g></mask><clipPath id="5a15531c9d"><path d="M 0.4375 0.769531 L 70 0.769531 L 70 32.636719 L 0.4375 32.636719 Z M 0.4375 0.769531 " clip-rule="nonzero"/></clipPath><clipPath id="3fedaf3829"><path d="M 73 0.769531 L 217 0.769531 L 217 32.636719 L 73 32.636719 Z M 73 0.769531 " clip-rule="nonzero"/></clipPath><clipPath id="6e10499c56"><path d="M 219 0.769531 L 379.476562 0.769531 L 379.476562 32.636719 L 219 32.636719 Z M 219 0.769531 " clip-rule="nonzero"/></clipPath><clipPath id="5fdde63e0e"><rect x="0" width="380" y="0" height="33"/></clipPath></defs><g clip-path="url(#330cdf62f9)"><path fill="#ffffff" d="M 0.59375 0 L 704.40625 0 L 704.40625 590 L 0.59375 590 Z M 0.59375 0 " fill-opacity="1" fill-rule="nonzero"/><path fill="#ffffff" d="M 0.59375 0 L 704.40625 0 L 704.40625 590 L 0.59375 590 Z M 0.59375 0 " fill-opacity="1" fill-rule="nonzero"/></g><g mask="url(#d79571bf32)"><g transform="matrix(1, 0, 0, 1, 128, 127)"><g clip-path="url(#57d92b3fd5)"><path fill="#831d9f" d="M 39.898438 146.183594 C 40.429688 146.183594 40.953125 146.132812 41.472656 146.027344 C 41.992188 145.925781 42.496094 145.773438 42.984375 145.570312 C 43.472656 145.367188 43.9375 145.117188 44.378906 144.824219 C 44.820312 144.53125 45.226562 144.195312 45.601562 143.820312 C 45.976562 143.449219 46.308594 143.039062 46.601562 142.601562 C 46.898438 142.160156 47.144531 141.695312 47.347656 141.207031 C 47.550781 140.71875 47.703125 140.210938 47.808594 139.695312 C 47.910156 139.175781 47.960938 138.648438 47.960938 138.121094 L 47.960938 27.523438 C 47.960938 27.0625 48.007812 26.605469 48.097656 26.15625 C 48.1875 25.707031 48.320312 25.269531 48.496094 24.84375 C 48.671875 24.417969 48.890625 24.015625 49.144531 23.632812 C 49.398438 23.25 49.691406 22.898438 50.015625 22.574219 C 50.339844 22.246094 50.695312 21.957031 51.074219 21.703125 C 51.457031 21.445312 51.863281 21.230469 52.285156 21.054688 C 52.710938 20.878906 53.148438 20.746094 53.597656 20.65625 C 54.050781 20.566406 54.503906 20.519531 54.964844 20.519531 C 60.683594 20.917969 381.4375 20.230469 397.90625 20.519531 C 398.367188 20.519531 398.820312 20.566406 399.273438 20.65625 C 399.722656 20.746094 400.160156 20.878906 400.585938 21.054688 C 401.011719 21.230469 401.414062 21.445312 401.796875 21.699219 C 402.179688 21.957031 402.53125 22.246094 402.859375 22.570312 C 403.183594 22.898438 403.472656 23.25 403.730469 23.632812 C 403.984375 24.015625 404.199219 24.417969 404.378906 24.84375 C 404.554688 25.265625 404.6875 25.707031 404.777344 26.15625 C 404.867188 26.605469 404.914062 27.0625 404.914062 27.523438 L 404.914062 227.476562 C 404.914062 227.9375 404.867188 228.390625 404.777344 228.84375 C 404.6875 229.292969 404.554688 229.730469 404.378906 230.15625 C 404.199219 230.582031 403.984375 230.984375 403.730469 231.367188 C 403.472656 231.75 403.183594 232.105469 402.859375 232.429688 C 402.53125 232.753906 402.179688 233.042969 401.796875 233.300781 C 401.414062 233.554688 401.011719 233.773438 400.585938 233.949219 C 400.160156 234.125 399.722656 234.257812 399.273438 234.347656 C 398.820312 234.4375 398.367188 234.484375 397.90625 234.484375 L 54.964844 234.484375 C 54.503906 234.484375 54.050781 234.4375 53.597656 234.347656 C 53.148438 234.257812 52.710938 234.125 52.285156 233.949219 C 51.859375 233.769531 51.457031 233.554688 51.074219 233.300781 C 50.695312 233.042969 50.339844 232.753906 50.015625 232.429688 C 49.691406 232.101562 49.398438 231.75 49.144531 231.367188 C 48.886719 230.984375 48.671875 230.582031 48.496094 230.15625 C 48.320312 229.730469 48.1875 229.292969 48.097656 228.84375 C 48.007812 228.390625 47.960938 227.9375 47.960938 227.476562 L 47.960938 208.359375 C 47.953125 207.835938 47.894531 207.316406 47.789062 206.804688 C 47.679688 206.289062 47.523438 205.792969 47.316406 205.308594 C 47.109375 204.828125 46.859375 204.367188 46.5625 203.933594 C 46.269531 203.5 45.933594 203.101562 45.558594 202.730469 C 45.1875 202.363281 44.78125 202.035156 44.34375 201.746094 C 43.90625 201.457031 43.445312 201.210938 42.957031 201.011719 C 42.472656 200.8125 41.972656 200.664062 41.457031 200.5625 C 40.945312 200.460938 40.425781 200.410156 39.898438 200.410156 C 39.375 200.410156 38.855469 200.460938 38.339844 200.5625 C 37.824219 200.664062 37.324219 200.8125 36.839844 201.011719 C 36.355469 201.210938 35.894531 201.457031 35.457031 201.746094 C 35.015625 202.035156 34.613281 202.363281 34.238281 202.730469 C 33.863281 203.101562 33.53125 203.5 33.234375 203.933594 C 32.9375 204.367188 32.6875 204.828125 32.484375 205.308594 C 32.277344 205.792969 32.121094 206.289062 32.011719 206.804688 C 31.902344 207.316406 31.84375 207.835938 31.835938 208.359375 L 31.835938 227.476562 C 31.835938 228.234375 31.875 228.988281 31.949219 229.742188 C 32.027344 230.496094 32.136719 231.242188 32.285156 231.988281 C 32.433594 232.730469 32.617188 233.460938 32.839844 234.1875 C 33.058594 234.910156 33.3125 235.625 33.605469 236.324219 C 33.894531 237.023438 34.21875 237.707031 34.574219 238.375 C 34.933594 239.042969 35.320312 239.691406 35.742188 240.320312 C 36.164062 240.949219 36.613281 241.558594 37.09375 242.144531 C 37.574219 242.726562 38.082031 243.289062 38.617188 243.824219 C 39.152344 244.359375 39.714844 244.867188 40.300781 245.347656 C 40.882812 245.828125 41.492188 246.28125 42.121094 246.699219 C 42.75 247.121094 43.398438 247.511719 44.066406 247.867188 C 44.734375 248.226562 45.417969 248.550781 46.117188 248.839844 C 46.816406 249.128906 47.53125 249.386719 48.253906 249.605469 C 48.976562 249.824219 49.710938 250.011719 50.453125 250.160156 C 51.195312 250.308594 51.945312 250.417969 52.699219 250.496094 C 53.453125 250.570312 54.207031 250.605469 54.964844 250.609375 L 397.90625 250.609375 C 398.664062 250.605469 399.417969 250.570312 400.171875 250.496094 C 400.925781 250.417969 401.671875 250.308594 402.417969 250.160156 C 403.160156 250.011719 403.894531 249.828125 404.617188 249.605469 C 405.34375 249.386719 406.054688 249.128906 406.753906 248.839844 C 407.453125 248.550781 408.136719 248.226562 408.804688 247.867188 C 409.472656 247.511719 410.121094 247.121094 410.75 246.703125 C 411.378906 246.28125 411.988281 245.828125 412.574219 245.347656 C 413.160156 244.867188 413.71875 244.359375 414.253906 243.824219 C 414.789062 243.289062 415.296875 242.730469 415.777344 242.144531 C 416.257812 241.558594 416.710938 240.953125 417.132812 240.320312 C 417.550781 239.691406 417.941406 239.042969 418.296875 238.375 C 418.65625 237.707031 418.980469 237.023438 419.269531 236.324219 C 419.558594 235.625 419.816406 234.914062 420.035156 234.1875 C 420.257812 233.464844 420.441406 232.730469 420.589844 231.988281 C 420.738281 231.246094 420.847656 230.496094 420.921875 229.742188 C 421 228.988281 421.035156 228.234375 421.039062 227.476562 L 421.039062 27.523438 C 421.035156 26.765625 421 26.007812 420.921875 25.257812 C 420.847656 24.503906 420.738281 23.753906 420.589844 23.011719 C 420.441406 22.269531 420.253906 21.535156 420.035156 20.8125 C 419.816406 20.085938 419.558594 19.375 419.269531 18.675781 C 418.980469 17.976562 418.65625 17.292969 418.296875 16.625 C 417.941406 15.957031 417.550781 15.308594 417.128906 14.679688 C 416.707031 14.050781 416.257812 13.441406 415.777344 12.855469 C 415.296875 12.269531 414.789062 11.710938 414.253906 11.175781 C 413.71875 10.640625 413.15625 10.132812 412.570312 9.652344 C 411.988281 9.171875 411.378906 8.71875 410.75 8.300781 C 410.121094 7.878906 409.472656 7.488281 408.804688 7.132812 C 408.136719 6.773438 407.453125 6.453125 406.753906 6.160156 C 406.054688 5.871094 405.339844 5.617188 404.617188 5.394531 C 403.890625 5.175781 403.160156 4.992188 402.417969 4.84375 C 401.671875 4.695312 400.925781 4.582031 400.171875 4.507812 C 399.417969 4.433594 398.664062 4.394531 397.90625 4.394531 C 380.300781 4.292969 61.882812 4.464844 54.964844 4.394531 C 54.207031 4.394531 53.453125 4.433594 52.699219 4.507812 C 51.945312 4.582031 51.199219 4.695312 50.453125 4.84375 C 49.710938 4.992188 48.980469 5.175781 48.253906 5.394531 C 47.53125 5.617188 46.816406 5.871094 46.117188 6.164062 C 45.417969 6.453125 44.734375 6.777344 44.066406 7.132812 C 43.402344 7.492188 42.753906 7.878906 42.121094 8.300781 C 41.492188 8.722656 40.886719 9.171875 40.300781 9.652344 C 39.714844 10.132812 39.15625 10.640625 38.621094 11.175781 C 38.082031 11.710938 37.574219 12.273438 37.09375 12.859375 C 36.613281 13.441406 36.164062 14.050781 35.742188 14.679688 C 35.324219 15.308594 34.933594 15.957031 34.578125 16.625 C 34.21875 17.292969 33.894531 17.976562 33.605469 18.675781 C 33.316406 19.375 33.058594 20.085938 32.839844 20.8125 C 32.617188 21.535156 32.433594 22.269531 32.285156 23.011719 C 32.136719 23.753906 32.027344 24.503906 31.949219 25.257812 C 31.875 26.007812 31.835938 26.765625 31.835938 27.523438 L 31.835938 138.121094 C 31.835938 138.648438 31.886719 139.175781 31.992188 139.695312 C 32.09375 140.210938 32.246094 140.71875 32.449219 141.207031 C 32.652344 141.695312 32.902344 142.160156 33.195312 142.601562 C 33.488281 143.039062 33.824219 143.449219 34.199219 143.820312 C 34.574219 144.195312 34.980469 144.53125 35.421875 144.824219 C 35.859375 145.117188 36.324219 145.367188 36.8125 145.570312 C 37.304688 145.773438 37.808594 145.925781 38.328125 146.027344 C 38.84375 146.132812 39.371094 146.183594 39.898438 146.183594 Z M 39.898438 146.183594 " fill-opacity="1" fill-rule="nonzero"/><g clip-path="url(#470a2cbdc5)"><path fill="#831d9f" d="M 449.601562 318.800781 L 412.433594 262.332031 C 411.722656 261.253906 410.894531 260.273438 409.941406 259.402344 C 408.992188 258.527344 407.945312 257.785156 406.808594 257.171875 C 405.671875 256.558594 404.480469 256.09375 403.226562 255.78125 C 401.972656 255.464844 400.703125 255.308594 399.410156 255.308594 L 53.46875 255.308594 C 52.175781 255.308594 50.90625 255.464844 49.652344 255.78125 C 48.398438 256.09375 47.203125 256.558594 46.066406 257.171875 C 44.925781 257.785156 43.882812 258.527344 42.929688 259.402344 C 41.976562 260.273438 41.148438 261.253906 40.4375 262.332031 L 3.269531 318.804688 C 2.496094 319.980469 1.890625 321.238281 1.457031 322.578125 C 1.023438 323.917969 0.777344 325.289062 0.714844 326.695312 C 0.65625 328.101562 0.78125 329.488281 1.097656 330.863281 C 1.410156 332.234375 1.902344 333.539062 2.570312 334.777344 C 3.238281 336.015625 4.058594 337.144531 5.03125 338.160156 C 6.003906 339.175781 7.097656 340.046875 8.304688 340.769531 C 9.511719 341.488281 10.796875 342.039062 12.152344 342.410156 C 13.507812 342.785156 14.890625 342.972656 16.296875 342.972656 L 436.578125 342.972656 C 437.980469 342.953125 439.355469 342.753906 440.699219 342.367188 C 442.046875 341.984375 443.320312 341.425781 444.515625 340.703125 C 445.714844 339.976562 446.796875 339.105469 447.761719 338.089844 C 448.726562 337.074219 449.539062 335.953125 450.203125 334.71875 C 450.867188 333.484375 451.359375 332.1875 451.675781 330.824219 C 451.992188 329.460938 452.125 328.078125 452.070312 326.679688 C 452.019531 325.277344 451.785156 323.910156 451.363281 322.574219 C 450.945312 321.238281 450.359375 319.980469 449.601562 318.800781 Z M 17.273438 326.847656 L 53.46875 271.433594 L 398.96875 271.199219 L 435.925781 326.847656 Z M 17.273438 326.847656 " fill-opacity="1" fill-rule="nonzero"/></g><path fill="#831d9f" d="M 275.238281 299.863281 C 274.6875 299.03125 273.972656 298.378906 273.09375 297.90625 C 272.214844 297.433594 271.273438 297.199219 270.277344 297.199219 L 182.59375 297.199219 C 181.59375 297.199219 180.65625 297.4375 179.777344 297.910156 C 178.898438 298.382812 178.183594 299.039062 177.632812 299.875 L 168.214844 314.1875 C 167.917969 314.636719 167.6875 315.113281 167.523438 315.625 C 167.359375 316.132812 167.261719 316.65625 167.238281 317.191406 C 167.214844 317.726562 167.265625 318.257812 167.382812 318.78125 C 167.503906 319.300781 167.691406 319.800781 167.945312 320.273438 C 168.199219 320.742188 168.511719 321.171875 168.882812 321.5625 C 169.253906 321.949219 169.667969 322.28125 170.128906 322.554688 C 170.589844 322.828125 171.078125 323.039062 171.59375 323.179688 C 172.109375 323.324219 172.636719 323.394531 173.171875 323.394531 L 279.703125 323.394531 C 280.234375 323.386719 280.757812 323.3125 281.269531 323.164062 C 281.785156 323.015625 282.269531 322.804688 282.722656 322.527344 C 283.179688 322.253906 283.589844 321.921875 283.960938 321.535156 C 284.328125 321.148438 284.636719 320.71875 284.890625 320.25 C 285.144531 319.78125 285.328125 319.285156 285.449219 318.765625 C 285.570312 318.246094 285.621094 317.71875 285.601562 317.1875 C 285.582031 316.65625 285.492188 316.132812 285.332031 315.625 C 285.171875 315.117188 284.949219 314.636719 284.660156 314.1875 Z M 177.109375 315.332031 L 183.734375 305.261719 L 269.136719 305.261719 L 275.765625 315.332031 Z M 177.109375 315.332031 " fill-opacity="1" fill-rule="nonzero"/><g clip-path="url(#342d3e1808)"><path fill="#831d9f" d="M 439.578125 346.207031 L 13.292969 346.207031 C 13.03125 346.207031 12.769531 346.234375 12.507812 346.285156 C 12.25 346.335938 11.996094 346.414062 11.75 346.515625 C 11.507812 346.617188 11.273438 346.738281 11.054688 346.886719 C 10.835938 347.035156 10.632812 347.199219 10.445312 347.386719 C 10.257812 347.574219 10.089844 347.777344 9.941406 348 C 9.796875 348.21875 9.671875 348.453125 9.570312 348.695312 C 9.46875 348.941406 9.390625 349.191406 9.339844 349.453125 C 9.289062 349.710938 9.261719 349.976562 9.261719 350.238281 L 9.261719 352.359375 C 9.265625 352.878906 9.289062 353.398438 9.34375 353.917969 C 9.394531 354.4375 9.46875 354.957031 9.574219 355.46875 C 9.675781 355.980469 9.800781 356.484375 9.953125 356.984375 C 10.105469 357.484375 10.28125 357.976562 10.480469 358.457031 C 10.679688 358.9375 10.90625 359.410156 11.152344 359.871094 C 11.398438 360.332031 11.664062 360.777344 11.957031 361.210938 C 12.246094 361.648438 12.554688 362.066406 12.886719 362.46875 C 13.21875 362.871094 13.570312 363.257812 13.9375 363.628906 C 14.308594 363.996094 14.695312 364.347656 15.097656 364.679688 C 15.5 365.011719 15.917969 365.320312 16.351562 365.609375 C 16.785156 365.902344 17.234375 366.167969 17.695312 366.417969 C 18.15625 366.664062 18.625 366.886719 19.109375 367.085938 C 19.589844 367.285156 20.082031 367.460938 20.582031 367.613281 C 21.082031 367.765625 21.585938 367.894531 22.097656 367.996094 C 22.609375 368.097656 23.125 368.175781 23.644531 368.226562 C 24.164062 368.277344 24.683594 368.304688 25.207031 368.304688 L 427.667969 368.304688 C 428.1875 368.304688 428.710938 368.277344 429.230469 368.226562 C 429.75 368.175781 430.265625 368.097656 430.777344 367.996094 C 431.289062 367.894531 431.792969 367.765625 432.292969 367.613281 C 432.792969 367.460938 433.285156 367.285156 433.765625 367.085938 C 434.25 366.886719 434.71875 366.664062 435.179688 366.417969 C 435.640625 366.171875 436.089844 365.902344 436.523438 365.613281 C 436.957031 365.320312 437.375 365.011719 437.777344 364.679688 C 438.183594 364.347656 438.566406 364 438.9375 363.628906 C 439.304688 363.257812 439.65625 362.875 439.988281 362.46875 C 440.320312 362.066406 440.628906 361.648438 440.917969 361.214844 C 441.210938 360.777344 441.476562 360.332031 441.722656 359.871094 C 441.96875 359.410156 442.195312 358.941406 442.394531 358.457031 C 442.59375 357.976562 442.769531 357.484375 442.921875 356.984375 C 443.074219 356.484375 443.199219 355.980469 443.300781 355.46875 C 443.40625 354.957031 443.480469 354.441406 443.53125 353.921875 C 443.585938 353.402344 443.609375 352.878906 443.609375 352.359375 C 443.886719 349.496094 443.054688 346.222656 439.578125 346.207031 Z M 427.667969 360.242188 L 25.207031 360.242188 C 24.328125 360.242188 23.472656 360.097656 22.644531 359.8125 C 21.8125 359.523438 21.050781 359.109375 20.359375 358.570312 C 19.667969 358.027344 19.082031 357.390625 18.601562 356.652344 C 18.121094 355.917969 17.777344 355.121094 17.5625 354.269531 L 435.3125 354.269531 C 435.097656 355.121094 434.75 355.917969 434.273438 356.652344 C 433.792969 357.390625 433.207031 358.027344 432.515625 358.570312 C 431.824219 359.109375 431.0625 359.523438 430.230469 359.808594 C 429.398438 360.097656 428.546875 360.242188 427.667969 360.242188 Z M 427.667969 360.242188 " fill-opacity="1" fill-rule="nonzero"/></g><path fill="#831d9f" d="M 63.855469 230.761719 L 389.015625 230.761719 C 389.785156 230.757812 390.550781 230.683594 391.304688 230.53125 C 392.058594 230.382812 392.792969 230.160156 393.503906 229.863281 C 394.214844 229.570312 394.890625 229.207031 395.53125 228.78125 C 396.171875 228.351562 396.761719 227.867188 397.308594 227.324219 C 397.851562 226.777344 398.339844 226.1875 398.765625 225.546875 C 399.195312 224.90625 399.554688 224.230469 399.851562 223.519531 C 400.144531 222.808594 400.371094 222.074219 400.519531 221.320312 C 400.671875 220.566406 400.746094 219.800781 400.746094 219.03125 L 400.746094 36.0625 C 400.746094 35.292969 400.671875 34.527344 400.519531 33.773438 C 400.371094 33.019531 400.144531 32.285156 399.851562 31.574219 C 399.554688 30.863281 399.195312 30.1875 398.765625 29.546875 C 398.339844 28.90625 397.851562 28.316406 397.308594 27.769531 C 396.761719 27.226562 396.171875 26.742188 395.53125 26.3125 C 394.890625 25.886719 394.214844 25.523438 393.503906 25.230469 C 392.792969 24.933594 392.058594 24.710938 391.304688 24.5625 C 390.546875 24.410156 389.785156 24.335938 389.015625 24.332031 L 63.855469 24.332031 C 63.085938 24.335938 62.324219 24.410156 61.566406 24.5625 C 60.8125 24.710938 60.082031 24.933594 59.371094 25.230469 C 58.660156 25.527344 57.984375 25.886719 57.34375 26.316406 C 56.703125 26.742188 56.113281 27.230469 55.566406 27.773438 C 55.023438 28.316406 54.539062 28.910156 54.109375 29.550781 C 53.683594 30.191406 53.320312 30.863281 53.027344 31.574219 C 52.730469 32.285156 52.507812 33.019531 52.359375 33.773438 C 52.207031 34.53125 52.132812 35.292969 52.128906 36.0625 L 52.128906 219.03125 C 52.132812 219.800781 52.207031 220.5625 52.359375 221.320312 C 52.507812 222.074219 52.730469 222.808594 53.027344 223.519531 C 53.320312 224.230469 53.683594 224.902344 54.109375 225.542969 C 54.539062 226.183594 55.023438 226.777344 55.566406 227.320312 C 56.113281 227.863281 56.703125 228.351562 57.34375 228.777344 C 57.984375 229.207031 58.660156 229.566406 59.371094 229.863281 C 60.082031 230.160156 60.8125 230.382812 61.566406 230.53125 C 62.324219 230.683594 63.085938 230.757812 63.855469 230.761719 Z M 60.191406 36.0625 C 60.195312 35.574219 60.285156 35.109375 60.472656 34.660156 C 60.660156 34.210938 60.921875 33.816406 61.265625 33.472656 C 61.609375 33.128906 62.003906 32.863281 62.453125 32.675781 C 62.902344 32.492188 63.367188 32.398438 63.855469 32.394531 L 389.015625 32.394531 C 389.503906 32.394531 389.96875 32.488281 390.417969 32.675781 C 390.867188 32.863281 391.265625 33.125 391.609375 33.46875 C 391.953125 33.8125 392.21875 34.210938 392.402344 34.660156 C 392.589844 35.109375 392.683594 35.574219 392.683594 36.0625 L 392.683594 219.03125 C 392.683594 219.519531 392.589844 219.984375 392.402344 220.433594 C 392.21875 220.882812 391.953125 221.28125 391.609375 221.625 C 391.265625 221.96875 390.867188 222.230469 390.417969 222.417969 C 389.96875 222.605469 389.503906 222.695312 389.015625 222.699219 L 63.855469 222.699219 C 63.367188 222.695312 62.902344 222.601562 62.453125 222.417969 C 62.003906 222.230469 61.609375 221.964844 61.265625 221.621094 C 60.921875 221.277344 60.660156 220.882812 60.472656 220.433594 C 60.285156 219.984375 60.195312 219.519531 60.191406 219.03125 Z M 60.191406 36.0625 " fill-opacity="1" fill-rule="nonzero"/><path fill="#831d9f" d="M 39.519531 182.109375 C 40.042969 182.097656 40.558594 182.039062 41.070312 181.929688 C 41.582031 181.820312 42.078125 181.660156 42.558594 181.453125 C 43.039062 181.246094 43.496094 180.996094 43.925781 180.699219 C 44.359375 180.402344 44.757812 180.070312 45.125 179.695312 C 45.488281 179.320312 45.816406 178.917969 46.105469 178.480469 C 46.394531 178.042969 46.636719 177.582031 46.832031 177.097656 C 47.03125 176.613281 47.179688 176.113281 47.28125 175.601562 C 47.382812 175.085938 47.433594 174.570312 47.433594 174.046875 C 47.433594 173.523438 47.382812 173.003906 47.28125 172.492188 C 47.179688 171.976562 47.03125 171.480469 46.832031 170.996094 C 46.636719 170.511719 46.390625 170.050781 46.105469 169.613281 C 45.816406 169.175781 45.488281 168.769531 45.125 168.398438 C 44.757812 168.023438 44.359375 167.6875 43.925781 167.394531 C 43.496094 167.097656 43.039062 166.847656 42.558594 166.640625 C 42.078125 166.433594 41.582031 166.273438 41.070312 166.164062 C 40.558594 166.054688 40.039062 165.992188 39.515625 165.984375 C 38.996094 165.992188 38.476562 166.054688 37.964844 166.164062 C 37.453125 166.273438 36.957031 166.433594 36.476562 166.640625 C 35.996094 166.847656 35.539062 167.097656 35.109375 167.394531 C 34.675781 167.6875 34.277344 168.023438 33.910156 168.398438 C 33.546875 168.769531 33.21875 169.175781 32.929688 169.613281 C 32.644531 170.050781 32.398438 170.511719 32.203125 170.996094 C 32.003906 171.480469 31.855469 171.976562 31.753906 172.492188 C 31.652344 173.003906 31.601562 173.523438 31.601562 174.046875 C 31.601562 174.570312 31.652344 175.089844 31.753906 175.601562 C 31.855469 176.113281 32.003906 176.613281 32.203125 177.097656 C 32.398438 177.582031 32.644531 178.042969 32.929688 178.480469 C 33.21875 178.917969 33.546875 179.324219 33.914062 179.695312 C 34.277344 180.070312 34.679688 180.402344 35.109375 180.699219 C 35.542969 180.996094 35.996094 181.246094 36.476562 181.453125 C 36.957031 181.660156 37.453125 181.820312 37.964844 181.929688 C 38.476562 182.039062 38.996094 182.097656 39.519531 182.109375 Z M 39.519531 182.109375 " fill-opacity="1" fill-rule="nonzero"/></g></g></g><g clip-path="url(#ea69c26aac)"><g clip-path="url(#03c4cf57bf)"><path fill="#ffffff" d="M 116.660156 94.96875 L 592.136719 94.96875 L 592.136719 458.320312 L 116.660156 458.320312 Z M 116.660156 94.96875 " fill-opacity="1" fill-rule="nonzero"/></g></g><g mask="url(#b5a7577a85)"><g transform="matrix(1, 0, 0, 1, 128, 95)"><g clip-path="url(#2044f70aad)"><g clip-path="url(#8ba52835da)"><path fill="#831d9f" d="M 39.898438 145.785156 C 40.429688 145.785156 40.953125 145.730469 41.472656 145.628906 C 41.992188 145.523438 42.496094 145.371094 42.984375 145.167969 C 43.472656 144.96875 43.9375 144.71875 44.378906 144.425781 C 44.820312 144.128906 45.226562 143.796875 45.601562 143.421875 C 45.976562 143.046875 46.308594 142.640625 46.601562 142.199219 C 46.898438 141.761719 47.144531 141.296875 47.347656 140.804688 C 47.550781 140.316406 47.703125 139.8125 47.808594 139.292969 C 47.910156 138.773438 47.960938 138.25 47.960938 137.722656 L 47.960938 27.121094 C 47.960938 26.664062 48.007812 26.207031 48.097656 25.757812 C 48.1875 25.304688 48.320312 24.867188 48.496094 24.445312 C 48.671875 24.019531 48.890625 23.617188 49.144531 23.234375 C 49.398438 22.851562 49.691406 22.496094 50.015625 22.171875 C 50.339844 21.847656 50.695312 21.558594 51.074219 21.300781 C 51.457031 21.046875 51.863281 20.832031 52.285156 20.652344 C 52.710938 20.476562 53.148438 20.34375 53.597656 20.253906 C 54.050781 20.164062 54.503906 20.121094 54.964844 20.117188 C 60.683594 20.519531 381.4375 19.832031 397.90625 20.121094 C 398.367188 20.121094 398.820312 20.164062 399.273438 20.253906 C 399.722656 20.34375 400.160156 20.476562 400.585938 20.652344 C 401.011719 20.828125 401.414062 21.046875 401.796875 21.300781 C 402.179688 21.554688 402.53125 21.847656 402.859375 22.171875 C 403.183594 22.496094 403.472656 22.851562 403.730469 23.234375 C 403.984375 23.613281 404.199219 24.019531 404.378906 24.441406 C 404.554688 24.867188 404.6875 25.304688 404.777344 25.757812 C 404.867188 26.207031 404.914062 26.664062 404.914062 27.121094 L 404.914062 227.078125 C 404.914062 227.535156 404.867188 227.992188 404.777344 228.441406 C 404.6875 228.894531 404.554688 229.332031 404.378906 229.757812 C 404.199219 230.183594 403.984375 230.585938 403.730469 230.96875 C 403.472656 231.351562 403.183594 231.703125 402.859375 232.027344 C 402.53125 232.355469 402.179688 232.644531 401.796875 232.902344 C 401.414062 233.15625 401.011719 233.371094 400.585938 233.546875 C 400.160156 233.726562 399.722656 233.859375 399.273438 233.949219 C 398.820312 234.039062 398.367188 234.082031 397.90625 234.082031 L 54.964844 234.082031 C 54.503906 234.082031 54.050781 234.039062 53.597656 233.949219 C 53.148438 233.855469 52.710938 233.722656 52.285156 233.546875 C 51.859375 233.371094 51.457031 233.15625 51.074219 232.898438 C 50.695312 232.644531 50.339844 232.351562 50.015625 232.027344 C 49.691406 231.703125 49.398438 231.347656 49.144531 230.96875 C 48.886719 230.585938 48.671875 230.179688 48.496094 229.757812 C 48.320312 229.332031 48.1875 228.894531 48.097656 228.441406 C 48.007812 227.992188 47.960938 227.535156 47.960938 227.078125 L 47.960938 207.960938 C 47.953125 207.433594 47.894531 206.917969 47.789062 206.402344 C 47.679688 205.890625 47.523438 205.390625 47.316406 204.910156 C 47.109375 204.425781 46.859375 203.96875 46.5625 203.535156 C 46.269531 203.101562 45.933594 202.699219 45.558594 202.332031 C 45.1875 201.964844 44.78125 201.636719 44.34375 201.347656 C 43.90625 201.058594 43.445312 200.8125 42.957031 200.613281 C 42.472656 200.414062 41.972656 200.265625 41.457031 200.164062 C 40.945312 200.0625 40.425781 200.011719 39.898438 200.011719 C 39.375 200.011719 38.855469 200.0625 38.339844 200.164062 C 37.824219 200.265625 37.324219 200.414062 36.839844 200.613281 C 36.355469 200.8125 35.894531 201.058594 35.457031 201.347656 C 35.015625 201.636719 34.613281 201.964844 34.238281 202.332031 C 33.863281 202.699219 33.53125 203.101562 33.234375 203.535156 C 32.9375 203.96875 32.6875 204.425781 32.484375 204.910156 C 32.277344 205.390625 32.121094 205.890625 32.011719 206.402344 C 31.902344 206.917969 31.84375 207.433594 31.835938 207.960938 L 31.835938 227.074219 C 31.835938 227.832031 31.875 228.589844 31.949219 229.34375 C 32.027344 230.097656 32.136719 230.84375 32.285156 231.585938 C 32.433594 232.328125 32.617188 233.0625 32.839844 233.789062 C 33.058594 234.511719 33.3125 235.222656 33.605469 235.921875 C 33.894531 236.621094 34.21875 237.308594 34.574219 237.972656 C 34.933594 238.640625 35.320312 239.289062 35.742188 239.921875 C 36.164062 240.550781 36.613281 241.15625 37.09375 241.742188 C 37.574219 242.328125 38.082031 242.886719 38.617188 243.425781 C 39.152344 243.960938 39.714844 244.46875 40.300781 244.949219 C 40.882812 245.429688 41.492188 245.878906 42.121094 246.300781 C 42.75 246.722656 43.398438 247.109375 44.066406 247.46875 C 44.734375 247.824219 45.417969 248.148438 46.117188 248.441406 C 46.816406 248.730469 47.53125 248.984375 48.253906 249.207031 C 48.976562 249.425781 49.710938 249.609375 50.453125 249.757812 C 51.195312 249.90625 51.945312 250.019531 52.699219 250.09375 C 53.453125 250.167969 54.207031 250.207031 54.964844 250.207031 L 397.90625 250.207031 C 398.664062 250.207031 399.417969 250.167969 400.171875 250.09375 C 400.925781 250.019531 401.671875 249.90625 402.417969 249.757812 C 403.160156 249.609375 403.894531 249.425781 404.617188 249.207031 C 405.34375 248.984375 406.054688 248.730469 406.753906 248.441406 C 407.453125 248.148438 408.136719 247.828125 408.804688 247.46875 C 409.472656 247.113281 410.121094 246.722656 410.75 246.300781 C 411.378906 245.882812 411.988281 245.429688 412.574219 244.949219 C 413.160156 244.46875 413.71875 243.960938 414.253906 243.425781 C 414.789062 242.890625 415.296875 242.328125 415.777344 241.742188 C 416.257812 241.160156 416.710938 240.550781 417.132812 239.921875 C 417.550781 239.292969 417.941406 238.644531 418.296875 237.976562 C 418.65625 237.308594 418.980469 236.625 419.269531 235.925781 C 419.558594 235.226562 419.816406 234.511719 420.035156 233.789062 C 420.257812 233.0625 420.441406 232.332031 420.589844 231.585938 C 420.738281 230.84375 420.847656 230.097656 420.921875 229.34375 C 421 228.589844 421.035156 227.835938 421.039062 227.078125 L 421.039062 27.121094 C 421.035156 26.363281 421 25.609375 420.921875 24.855469 C 420.847656 24.101562 420.738281 23.355469 420.589844 22.613281 C 420.441406 21.871094 420.253906 21.136719 420.035156 20.410156 C 419.816406 19.6875 419.558594 18.976562 419.269531 18.273438 C 418.980469 17.574219 418.65625 16.890625 418.296875 16.222656 C 417.941406 15.558594 417.550781 14.910156 417.128906 14.277344 C 416.707031 13.648438 416.257812 13.042969 415.777344 12.457031 C 415.296875 11.871094 414.789062 11.3125 414.253906 10.777344 C 413.71875 10.238281 413.15625 9.730469 412.570312 9.25 C 411.988281 8.769531 411.378906 8.320312 410.75 7.898438 C 410.121094 7.480469 409.472656 7.089844 408.804688 6.734375 C 408.136719 6.375 407.453125 6.050781 406.753906 5.761719 C 406.054688 5.472656 405.339844 5.214844 404.617188 4.996094 C 403.890625 4.777344 403.160156 4.589844 402.417969 4.441406 C 401.671875 4.292969 400.925781 4.183594 400.171875 4.109375 C 399.417969 4.03125 398.664062 3.996094 397.90625 3.992188 C 380.300781 3.894531 61.882812 4.066406 54.964844 3.992188 C 54.207031 3.996094 53.453125 4.03125 52.699219 4.109375 C 51.945312 4.183594 51.199219 4.292969 50.453125 4.441406 C 49.710938 4.589844 48.980469 4.777344 48.253906 4.996094 C 47.53125 5.21875 46.816406 5.472656 46.117188 5.761719 C 45.417969 6.050781 44.734375 6.375 44.066406 6.734375 C 43.402344 7.089844 42.753906 7.480469 42.121094 7.902344 C 41.492188 8.320312 40.886719 8.773438 40.300781 9.253906 C 39.714844 9.734375 39.15625 10.242188 38.621094 10.777344 C 38.082031 11.3125 37.574219 11.871094 37.09375 12.457031 C 36.613281 13.042969 36.164062 13.648438 35.742188 14.28125 C 35.324219 14.910156 34.933594 15.558594 34.578125 16.226562 C 34.21875 16.894531 33.894531 17.578125 33.605469 18.277344 C 33.316406 18.976562 33.058594 19.6875 32.839844 20.410156 C 32.617188 21.136719 32.433594 21.871094 32.285156 22.613281 C 32.136719 23.355469 32.027344 24.101562 31.949219 24.855469 C 31.875 25.609375 31.835938 26.363281 31.835938 27.121094 L 31.835938 137.722656 C 31.835938 138.25 31.886719 138.773438 31.992188 139.292969 C 32.09375 139.8125 32.246094 140.316406 32.449219 140.804688 C 32.652344 141.296875 32.902344 141.761719 33.195312 142.199219 C 33.488281 142.640625 33.824219 143.046875 34.199219 143.421875 C 34.574219 143.796875 34.980469 144.128906 35.421875 144.425781 C 35.859375 144.71875 36.324219 144.96875 36.8125 145.167969 C 37.304688 145.371094 37.808594 145.523438 38.328125 145.628906 C 38.84375 145.730469 39.371094 145.785156 39.898438 145.785156 Z M 39.898438 145.785156 " fill-opacity="1" fill-rule="nonzero"/></g><g clip-path="url(#7ec30807eb)"><path fill="#831d9f" d="M 449.601562 318.402344 L 412.433594 261.933594 C 411.722656 260.851562 410.894531 259.875 409.941406 259 C 408.992188 258.128906 407.945312 257.386719 406.808594 256.773438 C 405.671875 256.160156 404.480469 255.695312 403.226562 255.378906 C 401.972656 255.0625 400.703125 254.90625 399.410156 254.910156 L 53.46875 254.910156 C 52.175781 254.90625 50.90625 255.0625 49.652344 255.378906 C 48.398438 255.695312 47.203125 256.160156 46.066406 256.773438 C 44.925781 257.386719 43.882812 258.128906 42.929688 259 C 41.976562 259.875 41.148438 260.851562 40.4375 261.933594 L 3.269531 318.40625 C 2.496094 319.582031 1.890625 320.839844 1.457031 322.175781 C 1.023438 323.515625 0.777344 324.890625 0.714844 326.296875 C 0.65625 327.703125 0.78125 329.089844 1.097656 330.460938 C 1.410156 331.832031 1.902344 333.140625 2.570312 334.378906 C 3.238281 335.617188 4.058594 336.746094 5.03125 337.761719 C 6.003906 338.777344 7.097656 339.648438 8.304688 340.367188 C 9.511719 341.089844 10.796875 341.636719 12.152344 342.011719 C 13.507812 342.386719 14.890625 342.574219 16.296875 342.574219 L 436.578125 342.574219 C 437.980469 342.554688 439.355469 342.351562 440.699219 341.96875 C 442.046875 341.582031 443.320312 341.027344 444.515625 340.300781 C 445.714844 339.574219 446.796875 338.707031 447.761719 337.691406 C 448.726562 336.675781 449.539062 335.550781 450.203125 334.320312 C 450.867188 333.085938 451.359375 331.789062 451.675781 330.421875 C 451.992188 329.058594 452.125 327.675781 452.070312 326.277344 C 452.019531 324.878906 451.785156 323.511719 451.363281 322.175781 C 450.945312 320.839844 450.359375 319.582031 449.601562 318.402344 Z M 17.273438 326.449219 L 53.46875 271.035156 L 398.96875 270.796875 L 435.925781 326.445312 Z M 17.273438 326.449219 " fill-opacity="1" fill-rule="nonzero"/></g><path fill="#831d9f" d="M 275.238281 299.464844 C 274.6875 298.632812 273.972656 297.980469 273.09375 297.507812 C 272.214844 297.035156 271.273438 296.796875 270.277344 296.800781 L 182.59375 296.800781 C 181.59375 296.800781 180.65625 297.035156 179.777344 297.511719 C 178.898438 297.984375 178.183594 298.636719 177.632812 299.472656 L 168.214844 313.785156 C 167.917969 314.234375 167.6875 314.714844 167.523438 315.222656 C 167.359375 315.734375 167.261719 316.257812 167.238281 316.792969 C 167.214844 317.328125 167.265625 317.855469 167.382812 318.378906 C 167.503906 318.902344 167.691406 319.398438 167.945312 319.871094 C 168.199219 320.34375 168.511719 320.773438 168.882812 321.160156 C 169.253906 321.546875 169.667969 321.878906 170.128906 322.15625 C 170.589844 322.429688 171.078125 322.636719 171.59375 322.78125 C 172.109375 322.921875 172.636719 322.996094 173.171875 322.996094 L 279.703125 322.996094 C 280.234375 322.988281 280.757812 322.910156 281.269531 322.765625 C 281.785156 322.617188 282.269531 322.40625 282.722656 322.128906 C 283.179688 321.851562 283.589844 321.519531 283.960938 321.132812 C 284.328125 320.746094 284.636719 320.320312 284.890625 319.851562 C 285.144531 319.378906 285.328125 318.886719 285.449219 318.367188 C 285.570312 317.847656 285.621094 317.320312 285.601562 316.789062 C 285.582031 316.253906 285.492188 315.734375 285.332031 315.222656 C 285.171875 314.714844 284.949219 314.234375 284.660156 313.785156 Z M 177.109375 314.933594 L 183.734375 304.863281 L 269.136719 304.863281 L 275.765625 314.933594 Z M 177.109375 314.933594 " fill-opacity="1" fill-rule="nonzero"/><g clip-path="url(#44c8d932cf)"><path fill="#831d9f" d="M 439.578125 345.808594 L 13.292969 345.808594 C 13.03125 345.808594 12.769531 345.832031 12.507812 345.886719 C 12.25 345.9375 11.996094 346.011719 11.75 346.113281 C 11.507812 346.214844 11.273438 346.339844 11.054688 346.488281 C 10.835938 346.632812 10.632812 346.800781 10.445312 346.988281 C 10.257812 347.175781 10.089844 347.378906 9.941406 347.597656 C 9.796875 347.820312 9.671875 348.050781 9.570312 348.296875 C 9.46875 348.542969 9.390625 348.792969 9.339844 349.054688 C 9.289062 349.3125 9.261719 349.574219 9.261719 349.839844 L 9.261719 351.957031 C 9.265625 352.480469 9.289062 353 9.34375 353.519531 C 9.394531 354.039062 9.46875 354.554688 9.574219 355.066406 C 9.675781 355.578125 9.800781 356.085938 9.953125 356.585938 C 10.105469 357.082031 10.28125 357.574219 10.480469 358.058594 C 10.679688 358.539062 10.90625 359.011719 11.152344 359.472656 C 11.398438 359.929688 11.664062 360.378906 11.957031 360.8125 C 12.246094 361.246094 12.554688 361.664062 12.886719 362.070312 C 13.21875 362.472656 13.570312 362.859375 13.9375 363.226562 C 14.308594 363.597656 14.695312 363.949219 15.097656 364.277344 C 15.5 364.609375 15.917969 364.921875 16.351562 365.210938 C 16.785156 365.5 17.234375 365.769531 17.695312 366.015625 C 18.15625 366.261719 18.625 366.484375 19.109375 366.6875 C 19.589844 366.886719 20.082031 367.0625 20.582031 367.214844 C 21.082031 367.367188 21.585938 367.492188 22.097656 367.59375 C 22.609375 367.699219 23.125 367.773438 23.644531 367.828125 C 24.164062 367.878906 24.683594 367.90625 25.207031 367.90625 L 427.667969 367.90625 C 428.1875 367.90625 428.710938 367.878906 429.230469 367.828125 C 429.75 367.773438 430.265625 367.699219 430.777344 367.597656 C 431.289062 367.492188 431.792969 367.367188 432.292969 367.214844 C 432.792969 367.0625 433.285156 366.886719 433.765625 366.6875 C 434.25 366.488281 434.71875 366.261719 435.179688 366.015625 C 435.640625 365.769531 436.089844 365.503906 436.523438 365.210938 C 436.957031 364.921875 437.375 364.609375 437.777344 364.28125 C 438.183594 363.949219 438.566406 363.597656 438.9375 363.230469 C 439.304688 362.859375 439.65625 362.472656 439.988281 362.070312 C 440.320312 361.667969 440.628906 361.246094 440.917969 360.8125 C 441.210938 360.378906 441.476562 359.933594 441.722656 359.472656 C 441.96875 359.011719 442.195312 358.539062 442.394531 358.058594 C 442.59375 357.574219 442.769531 357.085938 442.921875 356.585938 C 443.074219 356.085938 443.199219 355.578125 443.300781 355.066406 C 443.40625 354.554688 443.480469 354.039062 443.53125 353.519531 C 443.585938 353 443.609375 352.480469 443.609375 351.957031 C 443.886719 349.097656 443.054688 345.824219 439.578125 345.808594 Z M 427.667969 359.84375 L 25.207031 359.84375 C 24.328125 359.839844 23.472656 359.699219 22.644531 359.410156 C 21.8125 359.125 21.050781 358.710938 20.359375 358.167969 C 19.667969 357.628906 19.082031 356.988281 18.601562 356.253906 C 18.121094 355.515625 17.777344 354.722656 17.5625 353.871094 L 435.3125 353.871094 C 435.097656 354.722656 434.75 355.515625 434.273438 356.253906 C 433.792969 356.988281 433.207031 357.628906 432.515625 358.167969 C 431.824219 358.710938 431.0625 359.125 430.230469 359.410156 C 429.398438 359.695312 428.546875 359.839844 427.667969 359.84375 Z M 427.667969 359.84375 " fill-opacity="1" fill-rule="nonzero"/></g><path fill="#831d9f" d="M 63.855469 230.359375 L 389.015625 230.359375 C 389.785156 230.359375 390.550781 230.285156 391.304688 230.132812 C 392.058594 229.984375 392.792969 229.761719 393.503906 229.464844 C 394.214844 229.171875 394.890625 228.808594 395.53125 228.382812 C 396.171875 227.953125 396.761719 227.46875 397.308594 226.921875 C 397.851562 226.378906 398.339844 225.785156 398.765625 225.144531 C 399.195312 224.507812 399.554688 223.832031 399.851562 223.121094 C 400.144531 222.40625 400.371094 221.675781 400.519531 220.921875 C 400.671875 220.164062 400.746094 219.402344 400.746094 218.632812 L 400.746094 35.660156 C 400.746094 34.890625 400.671875 34.128906 400.519531 33.375 C 400.371094 32.617188 400.144531 31.886719 399.851562 31.175781 C 399.554688 30.464844 399.195312 29.789062 398.765625 29.148438 C 398.339844 28.507812 397.851562 27.914062 397.308594 27.371094 C 396.761719 26.828125 396.171875 26.339844 395.53125 25.914062 C 394.890625 25.484375 394.214844 25.125 393.503906 24.828125 C 392.792969 24.535156 392.058594 24.3125 391.304688 24.160156 C 390.546875 24.011719 389.785156 23.933594 389.015625 23.933594 L 63.855469 23.933594 C 63.085938 23.933594 62.324219 24.011719 61.566406 24.160156 C 60.8125 24.3125 60.082031 24.535156 59.371094 24.832031 C 58.660156 25.125 57.984375 25.488281 57.34375 25.914062 C 56.703125 26.34375 56.113281 26.828125 55.566406 27.375 C 55.023438 27.917969 54.539062 28.511719 54.109375 29.148438 C 53.683594 29.789062 53.320312 30.464844 53.027344 31.175781 C 52.730469 31.886719 52.507812 32.621094 52.359375 33.375 C 52.207031 34.128906 52.132812 34.890625 52.128906 35.660156 L 52.128906 218.632812 C 52.132812 219.402344 52.207031 220.164062 52.359375 220.917969 C 52.507812 221.675781 52.730469 222.40625 53.027344 223.117188 C 53.320312 223.828125 53.683594 224.503906 54.109375 225.144531 C 54.539062 225.785156 55.023438 226.375 55.566406 226.921875 C 56.113281 227.464844 56.703125 227.949219 57.34375 228.378906 C 57.984375 228.808594 58.660156 229.167969 59.371094 229.464844 C 60.082031 229.757812 60.8125 229.980469 61.566406 230.132812 C 62.324219 230.28125 63.085938 230.359375 63.855469 230.359375 Z M 60.191406 35.660156 C 60.195312 35.175781 60.285156 34.707031 60.472656 34.261719 C 60.660156 33.8125 60.921875 33.414062 61.265625 33.070312 C 61.609375 32.726562 62.003906 32.464844 62.453125 32.277344 C 62.902344 32.089844 63.367188 31.996094 63.855469 31.996094 L 389.015625 31.996094 C 389.503906 31.996094 389.96875 32.089844 390.417969 32.277344 C 390.867188 32.460938 391.265625 32.726562 391.609375 33.070312 C 391.953125 33.414062 392.21875 33.808594 392.402344 34.257812 C 392.589844 34.707031 392.683594 35.175781 392.683594 35.660156 L 392.683594 218.632812 C 392.683594 219.117188 392.589844 219.585938 392.402344 220.035156 C 392.21875 220.484375 391.953125 220.878906 391.609375 221.222656 C 391.265625 221.566406 390.867188 221.832031 390.417969 222.019531 C 389.96875 222.203125 389.503906 222.296875 389.015625 222.296875 L 63.855469 222.296875 C 63.367188 222.296875 62.902344 222.203125 62.453125 222.015625 C 62.003906 221.832031 61.609375 221.566406 61.265625 221.222656 C 60.921875 220.878906 60.660156 220.480469 60.472656 220.035156 C 60.285156 219.585938 60.195312 219.117188 60.191406 218.632812 Z M 60.191406 35.660156 " fill-opacity="1" fill-rule="nonzero"/><path fill="#831d9f" d="M 39.519531 181.707031 C 40.042969 181.699219 40.558594 181.640625 41.070312 181.527344 C 41.582031 181.417969 42.078125 181.261719 42.558594 181.054688 C 43.039062 180.847656 43.496094 180.59375 43.925781 180.300781 C 44.359375 180.003906 44.757812 179.667969 45.125 179.296875 C 45.488281 178.921875 45.816406 178.515625 46.105469 178.078125 C 46.394531 177.644531 46.636719 177.183594 46.832031 176.699219 C 47.03125 176.214844 47.179688 175.714844 47.28125 175.199219 C 47.382812 174.6875 47.433594 174.167969 47.433594 173.644531 C 47.433594 173.121094 47.382812 172.605469 47.28125 172.089844 C 47.179688 171.578125 47.03125 171.078125 46.832031 170.59375 C 46.636719 170.109375 46.390625 169.648438 46.105469 169.210938 C 45.816406 168.777344 45.488281 168.371094 45.125 167.996094 C 44.757812 167.625 44.359375 167.289062 43.925781 166.992188 C 43.496094 166.699219 43.039062 166.445312 42.558594 166.238281 C 42.078125 166.03125 41.582031 165.875 41.070312 165.765625 C 40.558594 165.652344 40.039062 165.59375 39.515625 165.582031 C 38.996094 165.59375 38.476562 165.652344 37.964844 165.765625 C 37.453125 165.875 36.957031 166.03125 36.476562 166.238281 C 35.996094 166.445312 35.539062 166.699219 35.109375 166.992188 C 34.675781 167.289062 34.277344 167.625 33.910156 167.996094 C 33.546875 168.371094 33.21875 168.777344 32.929688 169.214844 C 32.644531 169.648438 32.398438 170.109375 32.203125 170.59375 C 32.003906 171.078125 31.855469 171.578125 31.753906 172.089844 C 31.652344 172.605469 31.601562 173.125 31.601562 173.648438 C 31.601562 174.171875 31.652344 174.6875 31.753906 175.203125 C 31.855469 175.714844 32.003906 176.214844 32.203125 176.699219 C 32.398438 177.183594 32.644531 177.644531 32.929688 178.082031 C 33.21875 178.515625 33.546875 178.921875 33.914062 179.296875 C 34.277344 179.667969 34.679688 180.003906 35.109375 180.300781 C 35.542969 180.59375 35.996094 180.847656 36.476562 181.054688 C 36.957031 181.261719 37.453125 181.417969 37.964844 181.527344 C 38.476562 181.640625 38.996094 181.699219 39.519531 181.707031 Z M 39.519531 181.707031 " fill-opacity="1" fill-rule="nonzero"/></g></g></g><g clip-path="url(#50f45462ee)"><g clip-path="url(#0a260d4875)"><path fill="#ffffff" d="M 112.75 441.210938 L 590.023438 441.210938 L 590.023438 472.132812 L 112.75 472.132812 Z M 112.75 441.210938 " fill-opacity="1" fill-rule="nonzero"/></g></g><g mask="url(#d168b9c788)"><g transform="matrix(1, 0, 0, 1, 277, 148)"><g clip-path="url(#11e8968875)"><g clip-path="url(#572d00d94b)"><path fill="#000000" d="M 154.761719 19.867188 C 144.625 19.867188 134.488281 19.867188 124.347656 19.867188 C 99.433594 37.613281 86.035156 61.644531 74.832031 86.871094 C 67.632812 81.273438 59.265625 77.167969 49.425781 74.984375 C 45.5 78.714844 41.578125 82.445312 37.65625 86.171875 C 52.171875 84.996094 65.824219 88.394531 77.855469 100.277344 C 89.976562 70.921875 109.671875 43 154.761719 19.867188 " fill-opacity="1" fill-rule="evenodd"/></g><path fill="#ff2351" d="M 64.695312 46.023438 C 45.292969 39.910156 28.9375 43.824219 14.816406 55.117188 C 23.671875 72.210938 32.535156 89.296875 41.390625 106.390625 C 52.492188 101.089844 64.859375 99.714844 80.308594 107.785156 C 54.34375 102.695312 46.210938 109.863281 40.222656 118.503906 C 28.414062 96.992188 16.609375 75.472656 4.796875 53.949219 C 22.085938 39.753906 41.5 34.738281 64.695312 46.023438 " fill-opacity="1" fill-rule="evenodd"/><g clip-path="url(#c5d0a93a4e)"><path fill="#000000" d="M 5.730469 63.503906 C 3.867188 65.445312 2.003906 67.390625 0.136719 69.328125 C 12.21875 92.207031 24.296875 115.082031 36.378906 137.960938 C 42.839844 126.574219 53.945312 116.636719 79.378906 111.15625 C 63.355469 108.640625 50.191406 114.136719 38.828125 124.675781 C 27.796875 104.289062 16.761719 83.898438 5.730469 63.503906 " fill-opacity="1" fill-rule="evenodd"/></g><path fill="#ff2351" d="M 117.722656 46.019531 C 118.65625 57.882812 119.832031 69.472656 120.21875 81.972656 C 103.738281 83.863281 95.84375 93.527344 89.34375 104.460938 C 99.421875 92.792969 111.222656 84.914062 129.082031 90.359375 C 127.238281 73.28125 125.507812 57.414062 123.734375 41.046875 C 121.6875 42.652344 119.683594 44.308594 117.722656 46.019531 M 67.667969 45.03125 C 78.800781 31.945312 90.304688 23.449219 114.199219 26.21875 C 116.515625 24.1875 118.945312 22.222656 121.492188 20.324219 L 121.484375 20.289062 C 90.117188 17.28125 76.964844 29.40625 67.667969 45.03125 Z M 67.667969 45.03125 " fill-opacity="1" fill-rule="evenodd"/><path fill="#000000" d="M 92.609375 107.25 C 113.691406 97.320312 130.488281 96.898438 143.183594 105.617188 L 134.015625 33.566406 C 131.515625 35.246094 129.0625 36.992188 126.664062 38.792969 L 133.628906 96.40625 C 117.597656 91.664062 103.421875 96.835938 92.609375 107.25 " fill-opacity="1" fill-rule="evenodd"/><g clip-path="url(#27d5aeea0e)"><path fill="#ff2351" d="M 142.664062 91.0625 C 145.199219 84.070312 146.578125 76.53125 146.578125 68.675781 C 146.578125 65.523438 146.238281 61.566406 146.550781 56.203125 C 147.445312 60.628906 147.910156 65.207031 147.910156 69.898438 C 147.910156 78.785156 146.230469 87.269531 143.171875 95.070312 Z M 78.929688 138.882812 C 66.296875 138.882812 54.457031 135.484375 44.277344 129.554688 C 45.402344 128.386719 46.574219 127.292969 47.796875 126.269531 C 57.386719 131.625 68.453125 134.6875 80.234375 134.6875 C 104.027344 134.6875 124.894531 122.222656 136.601562 103.503906 C 137.289062 103.792969 137.972656 104.113281 138.644531 104.457031 C 126.707031 125.039062 104.433594 138.882812 78.929688 138.882812 Z M 14.304688 45.730469 C 24.09375 19.550781 49.332031 0.917969 78.929688 0.917969 C 88.449219 0.917969 97.515625 2.84375 105.761719 6.332031 C 96.777344 4.117188 90.304688 2.667969 80.226562 2.667969 C 52.621094 2.667969 28.957031 19.449219 18.964844 43.3125 C 17.398438 44.039062 15.847656 44.847656 14.304688 45.730469 Z M 14.304688 45.730469 " fill-opacity="1" fill-rule="evenodd"/></g></g></g></g><g mask="url(#9c194e8efa)"><g transform="matrix(1, 0, 0, 1, 165, 442)"><g clip-path="url(#5fdde63e0e)"><g clip-path="url(#5a15531c9d)"><path stroke-linecap="butt" transform="matrix(0.529687, 0, 0, 0.529687, 1.715427, -0.279048)" fill="none" stroke-linejoin="miter" d="M 0.883856 5.534196 L 0.883856 16.367538 C 3.03725 14.346887 6.37796 13.904409 8.538729 13.904409 L 11.709823 13.904409 L 11.709823 42.503253 C 11.709823 44.700895 11.171475 47.119776 10.161149 47.997358 L 23.140511 47.997358 C 22.130186 47.119776 21.599212 44.745142 21.599212 42.540126 L 21.599212 13.904409 L 24.903049 13.904409 C 27.056444 13.904409 30.397154 14.346887 32.557923 16.367538 L 32.557923 5.534196 Z M 50.242303 47.997358 C 49.231978 47.119776 48.708379 44.700895 48.708379 42.503253 L 48.708379 30.3646 L 60.234937 30.3646 L 60.234937 42.540126 C 60.234937 44.745142 59.711338 47.119776 58.701012 47.997358 L 71.673 47.997358 C 70.662674 47.119776 70.139075 44.700895 70.139075 42.503253 L 70.139075 11.035675 C 70.139075 8.845408 70.662674 6.419152 71.673 5.534196 L 58.701012 5.534196 C 59.711338 6.419152 60.234937 8.793785 60.234937 10.991427 L 60.234937 22.436864 L 48.708379 22.436864 L 48.708379 11.035675 C 48.708379 8.845408 49.231978 6.419152 50.242303 5.534196 L 37.270316 5.534196 C 38.280642 6.419152 38.804241 8.793785 38.804241 10.991427 L 38.804241 42.540126 C 38.804241 44.745142 38.280642 47.119776 37.270316 47.997358 Z M 98.074201 48.6537 C 104.327894 48.6537 109.866246 46.905911 113.251205 43.152221 C 111.761528 39.553398 110.39722 34.885252 110.39722 34.885252 C 110.39722 34.885252 107.314622 40.20974 99.703996 40.20974 C 95.788064 40.20974 92.130244 38.720064 89.75561 35.718586 C 87.911951 31.411798 92.174491 29.428021 97.506354 29.428021 C 100.928186 29.428021 104.409015 30.932447 106.171553 32.422123 L 106.171553 22.702351 C 105.463588 21.382291 102.388364 20.231848 99.703996 20.231848 C 92.71284 20.231848 87.823455 25.998814 88.310181 33.388201 C 87.425225 31.588789 86.945873 29.383773 86.945873 26.795275 C 86.945873 17.731846 92.926704 13.277565 99.703996 13.277565 C 107.314622 13.277565 110.39722 18.609428 110.39722 18.609428 C 110.39722 18.609428 111.761528 13.948657 113.251205 10.335085 C 109.866246 6.596143 104.327894 4.877853 98.074201 4.877853 C 85.271831 4.877853 77.041736 14.686121 77.041736 26.751027 C 77.041736 38.801185 85.271831 48.6537 98.074201 48.6537 Z M 98.074201 48.6537 " stroke="#000000" stroke-width="2.695" stroke-opacity="1" stroke-miterlimit="4"/></g><g clip-path="url(#3fedaf3829)"><path stroke-linecap="butt" transform="matrix(0.529687, 0, 0, 0.529687, 1.715427, -0.279048)" fill="none" stroke-linejoin="miter" d="M 171.083111 48.6537 C 177.336804 48.6537 182.882531 46.905911 186.260115 43.152221 C 184.770438 39.553398 183.40613 34.885252 183.40613 34.885252 C 183.40613 34.885252 180.323532 40.20974 172.720281 40.20974 C 165.942989 40.20974 159.954783 35.762834 159.954783 26.795275 C 159.954783 17.731846 165.942989 13.277565 172.720281 13.277565 C 180.323532 13.277565 183.40613 18.609428 183.40613 18.609428 C 183.40613 18.609428 184.770438 13.948657 186.260115 10.335085 C 182.882531 6.596143 177.336804 4.877853 171.083111 4.877853 C 158.280741 4.877853 150.050645 14.686121 150.050645 26.751027 C 150.050645 38.801185 158.280741 48.6537 171.083111 48.6537 Z M 193.833867 47.997358 L 206.024143 47.997358 C 203.258654 44.346912 201.577237 40.342484 200.920894 35.327731 L 212.705564 35.327731 L 212.705564 42.540126 C 212.705564 44.745142 212.181965 47.119776 211.17164 47.997358 L 224.151002 47.997358 C 223.140676 47.119776 222.609702 44.700895 222.609702 42.503253 L 222.609702 8.749538 C 221.33389 6.374904 216.982854 4.877853 212.88993 4.877853 C 198.583134 4.877853 190.751269 17.901462 190.751269 30.003242 C 190.751269 37.17139 191.717346 41.75104 193.833867 47.997358 Z M 200.965142 26.964892 C 201.850098 21.153678 205.058065 13.948657 212.749812 13.948657 L 212.705564 26.964892 Z M 228.420917 47.997358 L 241.400278 47.997358 C 240.389953 47.119776 239.858979 44.745142 239.858979 42.540126 L 239.858979 26.043062 L 244.51975 36.728912 C 245.050724 37.046021 245.928306 37.311508 246.769014 37.311508 C 255.751323 37.311508 261.90177 29.782003 261.90177 21.10943 C 261.90177 12.053375 255.353092 5.534196 244.128894 5.534196 L 228.420917 5.534196 C 229.431242 6.419152 229.954841 8.845408 229.954841 11.035675 L 229.954841 42.503253 C 229.954841 44.700895 229.431242 47.119776 228.420917 47.997358 Z M 244.873732 13.904409 C 249.711495 13.904409 251.997632 17.414736 251.997632 21.10943 C 251.997632 25.246601 250.065477 28.897047 245.802937 28.897047 C 242.676091 28.897047 241.142166 27.237753 239.858979 24.369019 L 239.858979 13.904409 Z M 266.614163 47.997358 L 279.586151 47.997358 C 278.575825 47.119776 278.052226 44.745142 278.052226 42.540126 L 278.052226 10.991427 C 278.052226 8.793785 278.575825 6.419152 279.586151 5.534196 L 266.614163 5.534196 C 267.624489 6.419152 268.148088 8.845408 268.148088 11.035675 L 268.148088 42.503253 C 268.148088 44.700895 267.624489 47.119776 266.614163 47.997358 Z M 284.298544 5.534196 L 284.298544 16.367538 C 286.459313 14.346887 289.800023 13.904409 291.960792 13.904409 L 295.131886 13.904409 L 295.131886 42.503253 C 295.131886 44.700895 294.593538 47.119776 293.583212 47.997358 L 306.555199 47.997358 C 305.544874 47.119776 305.021275 44.745142 305.021275 42.540126 L 305.021275 13.904409 L 308.317738 13.904409 C 310.478506 13.904409 313.819217 14.346887 315.979986 16.367538 L 315.979986 5.534196 Z M 324.423946 47.997358 L 336.621596 47.997358 C 333.848732 44.346912 332.174689 40.342484 331.518347 35.327731 L 343.303017 35.327731 L 343.303017 42.540126 C 343.303017 44.745142 342.772043 47.119776 341.761718 47.997358 L 354.74108 47.997358 C 353.730754 47.119776 353.207155 44.700895 353.207155 42.503253 L 353.207155 8.749538 C 351.923968 6.374904 347.572932 4.877853 343.480009 4.877853 C 329.173212 4.877853 321.341347 17.901462 321.341347 30.003242 C 321.341347 37.17139 322.307425 41.75104 324.423946 47.997358 Z M 331.562595 26.964892 C 332.440176 21.153678 335.655518 13.948657 343.33989 13.948657 L 343.303017 26.964892 Z M 359.010995 47.997358 L 389.593616 47.997358 L 389.593616 37.17139 C 387.432847 39.199415 384.092136 39.641893 381.938742 39.641893 L 370.449057 39.641893 L 370.449057 10.991427 C 370.449057 8.793785 370.980031 6.419152 371.990357 5.534196 L 359.010995 5.534196 C 360.02132 6.419152 360.544919 8.845408 360.544919 11.035675 L 360.544919 42.503253 C 360.544919 44.700895 360.02132 47.119776 359.010995 47.997358 Z M 359.010995 47.997358 " stroke="#000000" stroke-width="2.695" stroke-opacity="1" stroke-miterlimit="4"/></g><g clip-path="url(#6e10499c56)"><path stroke-linecap="butt" transform="matrix(0.529687, 0, 0, 0.529687, 1.715427, -0.279048)" fill="none" stroke-linejoin="miter" d="M 430.338487 47.997358 L 442.528763 47.997358 C 439.755899 44.346912 438.081857 40.342484 437.425514 35.327731 L 449.210184 35.327731 L 449.210184 42.540126 C 449.210184 44.745142 448.686585 47.119776 447.67626 47.997358 L 460.655622 47.997358 C 459.645296 47.119776 459.114322 44.700895 459.114322 42.503253 L 459.114322 8.749538 C 457.83851 6.374904 453.487474 4.877853 449.39455 4.877853 C 435.087754 4.877853 427.255889 17.901462 427.255889 30.003242 C 427.255889 37.17139 428.221966 41.75104 430.338487 47.997358 Z M 437.469762 26.964892 C 438.354718 21.153678 441.562685 13.948657 449.254432 13.948657 L 449.210184 26.964892 Z M 486.614345 48.6537 C 492.860663 48.6537 498.40639 46.905911 501.791349 43.152221 C 500.294297 39.553398 498.929989 34.885252 498.929989 34.885252 C 498.929989 34.885252 495.847391 40.20974 488.24414 40.20974 C 481.466848 40.20974 475.486017 35.762834 475.486017 26.795275 C 475.486017 17.731846 481.466848 13.277565 488.24414 13.277565 C 495.847391 13.277565 498.929989 18.609428 498.929989 18.609428 C 498.929989 18.609428 500.294297 13.948657 501.791349 10.335085 C 498.40639 6.596143 492.860663 4.877853 486.614345 4.877853 C 473.8046 4.877853 465.581879 14.686121 465.581879 26.751027 C 465.581879 38.801185 473.8046 48.6537 486.614345 48.6537 Z M 509.365101 47.997358 L 521.555377 47.997358 C 518.782513 44.346912 517.10847 40.342484 516.452128 35.327731 L 528.236798 35.327731 L 528.236798 42.540126 C 528.236798 44.745142 527.705824 47.119776 526.702874 47.997358 L 539.674861 47.997358 C 538.664535 47.119776 538.140936 44.700895 538.140936 42.503253 L 538.140936 8.749538 C 536.865124 6.374904 532.514088 4.877853 528.421164 4.877853 C 514.106993 4.877853 506.275128 17.901462 506.275128 30.003242 C 506.275128 37.17139 507.24858 41.75104 509.365101 47.997358 Z M 516.496376 26.964892 C 517.373957 21.153678 520.589299 13.948657 528.281046 13.948657 L 528.236798 26.964892 Z M 543.944776 47.997358 L 558.428564 47.997358 C 570.478721 47.997358 577.558373 38.801185 577.558373 26.795275 C 577.558373 14.730368 570.478721 5.534196 558.428564 5.534196 L 543.944776 5.534196 C 544.955101 6.419152 545.486075 8.845408 545.486075 11.035675 L 545.486075 42.503253 C 545.486075 44.700895 544.955101 47.119776 543.944776 47.997358 Z M 555.390213 39.641893 L 555.390213 13.904409 L 559.350393 13.904409 C 563.834173 13.904409 567.668984 18.779044 567.668984 26.795275 C 567.668984 34.752509 563.834173 39.641893 559.350393 39.641893 Z M 604.623292 48.6537 C 610.86961 48.6537 616.415337 46.905911 619.800296 43.152221 C 618.303244 39.553398 616.938936 34.885252 616.938936 34.885252 C 616.938936 34.885252 613.856338 40.20974 606.253087 40.20974 C 602.32978 40.20974 598.679334 38.720064 596.304701 35.718586 C 594.461042 31.411798 598.723582 29.428021 604.04807 29.428021 C 607.477277 29.428021 610.958105 30.932447 612.720644 32.422123 L 612.720644 22.702351 C 612.012679 21.382291 608.937455 20.231848 606.253087 20.231848 C 599.261931 20.231848 594.372546 25.998814 594.851897 33.388201 C 593.974316 31.588789 593.48759 29.383773 593.48759 26.795275 C 593.48759 17.731846 599.475795 13.277565 606.253087 13.277565 C 613.856338 13.277565 616.938936 18.609428 616.938936 18.609428 C 616.938936 18.609428 618.303244 13.948657 619.800296 10.335085 C 616.415337 6.596143 610.86961 4.877853 604.623292 4.877853 C 591.813547 4.877853 583.583452 14.686121 583.583452 26.751027 C 583.583452 38.801185 591.813547 48.6537 604.623292 48.6537 Z M 636.607094 47.997358 C 635.596769 47.119776 635.07317 44.700895 635.07317 42.503253 L 635.07317 23.358694 L 644.837189 46.765793 L 654.556961 23.498812 L 654.556961 42.503253 C 654.556961 44.700895 654.033362 47.119776 653.023037 47.997358 L 665.995024 47.997358 C 664.992073 47.119776 664.461099 44.745142 664.461099 42.540126 L 664.461099 10.991427 C 664.461099 8.793785 664.992073 6.419152 665.995024 5.534196 L 654.556961 5.534196 L 644.837189 27.930969 L 635.07317 5.534196 L 623.627732 5.534196 C 624.638058 6.419152 625.169032 8.793785 625.169032 10.991427 L 625.169032 42.540126 C 625.169032 44.745142 624.638058 47.119776 623.627732 47.997358 Z M 670.272314 5.534196 C 671.76199 6.500273 672.728068 8.447177 673.922759 10.777563 C 678.539282 19.848367 680.390316 24.369019 684.394744 32.776106 L 684.394744 42.503253 C 684.394744 44.700895 683.871145 47.119776 682.853445 47.997358 L 695.840181 47.997358 C 694.829856 47.119776 694.291508 44.745142 694.291508 42.540126 L 694.291508 32.864602 C 698.295936 24.46489 700.14697 19.929488 704.763493 10.866058 C 705.958184 8.535673 706.924261 6.596143 708.413938 5.630066 L 692.440474 5.630066 C 693.502421 6.942751 693.679413 7.960451 693.679413 9.147768 C 693.679413 12.584349 690.818053 19.78937 689.372624 23.498812 C 687.868198 19.708249 685.006839 12.495853 685.006839 9.059272 C 685.006839 7.864581 685.191205 6.854256 686.245778 5.534196 Z M 670.272314 5.534196 " stroke="#000000" stroke-width="2.695" stroke-opacity="1" stroke-miterlimit="4"/></g><g fill="#ff5276" fill-opacity="1"><g transform="translate(1.715427, 25.145931)"><g><path d="M 0.46875 -22.5 L 0.46875 -16.765625 C 1.609375 -17.828125 3.375 -18.0625 4.515625 -18.0625 L 6.203125 -18.0625 L 6.203125 -2.921875 C 6.203125 -1.75 5.921875 -0.46875 5.390625 0 L 12.265625 0 C 11.71875 -0.46875 11.453125 -1.71875 11.453125 -2.890625 L 11.453125 -18.0625 L 13.1875 -18.0625 C 14.34375 -18.0625 16.109375 -17.828125 17.25 -16.765625 L 17.25 -22.5 Z M 0.46875 -22.5 "/></g></g></g><g fill="#ff5276" fill-opacity="1"><g transform="translate(20.989639, 25.145931)"><g><path d="M 7.34375 0 C 6.8125 -0.46875 6.53125 -1.75 6.53125 -2.921875 L 6.53125 -9.34375 L 12.640625 -9.34375 L 12.640625 -2.890625 C 12.640625 -1.71875 12.359375 -0.46875 11.8125 0 L 18.703125 0 C 18.15625 -0.46875 17.875 -1.75 17.875 -2.921875 L 17.875 -19.578125 C 17.875 -20.75 18.15625 -22.03125 18.703125 -22.5 L 11.8125 -22.5 C 12.359375 -22.03125 12.640625 -20.765625 12.640625 -19.609375 L 12.640625 -13.546875 L 6.53125 -13.546875 L 6.53125 -19.578125 C 6.53125 -20.75 6.8125 -22.03125 7.34375 -22.5 L 0.46875 -22.5 C 1 -22.03125 1.28125 -20.765625 1.28125 -19.609375 L 1.28125 -2.890625 C 1.28125 -1.71875 1 -0.46875 0.46875 0 Z M 7.34375 0 "/></g></g></g><g fill="#ff5276" fill-opacity="1"><g transform="translate(41.708837, 25.145931)"><g><path d="M 11.953125 0.34375 C 15.265625 0.34375 18.203125 -0.578125 20 -2.5625 C 19.203125 -4.46875 18.484375 -6.953125 18.484375 -6.953125 C 18.484375 -6.953125 16.859375 -4.125 12.828125 -4.125 C 10.75 -4.125 8.8125 -4.921875 7.546875 -6.5 C 6.578125 -8.78125 8.828125 -9.84375 11.65625 -9.84375 C 13.46875 -9.84375 15.3125 -9.046875 16.25 -8.25 L 16.25 -13.40625 C 15.875 -14.109375 14.25 -14.703125 12.828125 -14.703125 C 9.109375 -14.703125 6.53125 -11.65625 6.78125 -7.734375 C 6.3125 -8.703125 6.0625 -9.859375 6.0625 -11.234375 C 6.0625 -16.03125 9.234375 -18.390625 12.828125 -18.390625 C 16.859375 -18.390625 18.484375 -15.578125 18.484375 -15.578125 C 18.484375 -15.578125 19.203125 -18.046875 20 -19.953125 C 18.203125 -21.9375 15.265625 -22.84375 11.953125 -22.84375 C 5.171875 -22.84375 0.8125 -17.640625 0.8125 -11.265625 C 0.8125 -4.875 5.171875 0.34375 11.953125 0.34375 Z M 11.953125 0.34375 "/></g></g></g><g fill="#ff5276" fill-opacity="1"><g transform="translate(63.274995, 25.145931)"><g/></g></g><g fill="#ff5276" fill-opacity="1"><g transform="translate(71.828364, 25.145931)"><g/></g></g><g fill="#ff5276" fill-opacity="1"><g transform="translate(80.382232, 25.145931)"><g><path d="M 11.953125 0.34375 C 15.265625 0.34375 18.203125 -0.578125 20 -2.5625 C 19.203125 -4.46875 18.484375 -6.953125 18.484375 -6.953125 C 18.484375 -6.953125 16.859375 -4.125 12.828125 -4.125 C 9.234375 -4.125 6.0625 -6.484375 6.0625 -11.234375 C 6.0625 -16.03125 9.234375 -18.390625 12.828125 -18.390625 C 16.859375 -18.390625 18.484375 -15.578125 18.484375 -15.578125 C 18.484375 -15.578125 19.203125 -18.046875 20 -19.953125 C 18.203125 -21.9375 15.265625 -22.84375 11.953125 -22.84375 C 5.171875 -22.84375 0.8125 -17.640625 0.8125 -11.265625 C 0.8125 -4.875 5.171875 0.34375 11.953125 0.34375 Z M 11.953125 0.34375 "/></g></g></g><g fill="#ff5276" fill-opacity="1"><g transform="translate(101.940454, 25.145931)"><g><path d="M 2.453125 0 L 8.90625 0 C 7.4375 -1.9375 6.546875 -4.0625 6.203125 -6.71875 L 12.453125 -6.71875 L 12.453125 -2.890625 C 12.453125 -1.71875 12.171875 -0.46875 11.640625 0 L 18.515625 0 C 17.96875 -0.46875 17.6875 -1.75 17.6875 -2.921875 L 17.6875 -20.796875 C 17.015625 -22.046875 14.703125 -22.84375 12.546875 -22.84375 C 4.96875 -22.84375 0.8125 -15.953125 0.8125 -9.53125 C 0.8125 -5.734375 1.328125 -3.3125 2.453125 0 Z M 6.21875 -11.140625 C 6.6875 -14.21875 8.390625 -18.046875 12.46875 -18.046875 L 12.453125 -11.140625 Z M 6.21875 -11.140625 "/></g></g></g><g fill="#ff5276" fill-opacity="1"><g transform="translate(122.240143, 25.145931)"><g><path d="M 0.46875 0 L 7.34375 0 C 6.8125 -0.46875 6.53125 -1.71875 6.53125 -2.890625 L 6.53125 -11.640625 L 9 -5.96875 C 9.28125 -5.8125 9.75 -5.671875 10.1875 -5.671875 C 14.9375 -5.671875 18.203125 -9.65625 18.203125 -14.25 C 18.203125 -19.046875 14.734375 -22.5 8.78125 -22.5 L 0.46875 -22.5 C 1 -22.03125 1.28125 -20.75 1.28125 -19.578125 L 1.28125 -2.921875 C 1.28125 -1.75 1 -0.46875 0.46875 0 Z M 9.1875 -18.0625 C 11.75 -18.0625 12.96875 -16.203125 12.96875 -14.25 C 12.96875 -12.046875 11.9375 -10.125 9.671875 -10.125 C 8.015625 -10.125 7.203125 -11 6.53125 -12.515625 L 6.53125 -18.0625 Z M 9.1875 -18.0625 "/></g></g></g><g fill="#ff5276" fill-opacity="1"><g transform="translate(142.469912, 25.145931)"><g><path d="M 0.46875 0 L 7.34375 0 C 6.8125 -0.46875 6.53125 -1.71875 6.53125 -2.890625 L 6.53125 -19.609375 C 6.53125 -20.765625 6.8125 -22.03125 7.34375 -22.5 L 0.46875 -22.5 C 1 -22.03125 1.28125 -20.75 1.28125 -19.578125 L 1.28125 -2.921875 C 1.28125 -1.75 1 -0.46875 0.46875 0 Z M 0.46875 0 "/></g></g></g><g fill="#ff5276" fill-opacity="1"><g transform="translate(151.839002, 25.145931)"><g><path d="M 0.46875 -22.5 L 0.46875 -16.765625 C 1.609375 -17.828125 3.375 -18.0625 4.515625 -18.0625 L 6.203125 -18.0625 L 6.203125 -2.921875 C 6.203125 -1.75 5.921875 -0.46875 5.390625 0 L 12.265625 0 C 11.71875 -0.46875 11.453125 -1.71875 11.453125 -2.890625 L 11.453125 -18.0625 L 13.1875 -18.0625 C 14.34375 -18.0625 16.109375 -17.828125 17.25 -16.765625 L 17.25 -22.5 Z M 0.46875 -22.5 "/></g></g></g><g fill="#ff5276" fill-opacity="1"><g transform="translate(171.113215, 25.145931)"><g><path d="M 2.453125 0 L 8.90625 0 C 7.4375 -1.9375 6.546875 -4.0625 6.203125 -6.71875 L 12.453125 -6.71875 L 12.453125 -2.890625 C 12.453125 -1.71875 12.171875 -0.46875 11.640625 0 L 18.515625 0 C 17.96875 -0.46875 17.6875 -1.75 17.6875 -2.921875 L 17.6875 -20.796875 C 17.015625 -22.046875 14.703125 -22.84375 12.546875 -22.84375 C 4.96875 -22.84375 0.8125 -15.953125 0.8125 -9.53125 C 0.8125 -5.734375 1.328125 -3.3125 2.453125 0 Z M 6.21875 -11.140625 C 6.6875 -14.21875 8.390625 -18.046875 12.46875 -18.046875 L 12.453125 -11.140625 Z M 6.21875 -11.140625 "/></g></g></g><g fill="#ff5276" fill-opacity="1"><g transform="translate(191.412904, 25.145931)"><g><path d="M 0.46875 0 L 16.671875 0 L 16.671875 -5.734375 C 15.53125 -4.65625 13.75 -4.421875 12.609375 -4.421875 L 6.53125 -4.421875 L 6.53125 -19.609375 C 6.53125 -20.765625 6.8125 -22.03125 7.34375 -22.5 L 0.46875 -22.5 C 1 -22.03125 1.28125 -20.75 1.28125 -19.578125 L 1.28125 -2.921875 C 1.28125 -1.75 1 -0.46875 0.46875 0 Z M 0.46875 0 "/></g></g></g><g fill="#ff5276" fill-opacity="1"><g transform="translate(210.105907, 25.145931)"><g/></g></g><g fill="#ff5276" fill-opacity="1"><g transform="translate(218.659276, 25.145931)"><g/></g></g><g fill="#ff5276" fill-opacity="1"><g transform="translate(227.213141, 25.145931)"><g><path d="M 2.453125 0 L 8.90625 0 C 7.4375 -1.9375 6.546875 -4.0625 6.203125 -6.71875 L 12.453125 -6.71875 L 12.453125 -2.890625 C 12.453125 -1.71875 12.171875 -0.46875 11.640625 0 L 18.515625 0 C 17.96875 -0.46875 17.6875 -1.75 17.6875 -2.921875 L 17.6875 -20.796875 C 17.015625 -22.046875 14.703125 -22.84375 12.546875 -22.84375 C 4.96875 -22.84375 0.8125 -15.953125 0.8125 -9.53125 C 0.8125 -5.734375 1.328125 -3.3125 2.453125 0 Z M 6.21875 -11.140625 C 6.6875 -14.21875 8.390625 -18.046875 12.46875 -18.046875 L 12.453125 -11.140625 Z M 6.21875 -11.140625 "/></g></g></g><g fill="#ff5276" fill-opacity="1"><g transform="translate(247.512831, 25.145931)"><g><path d="M 11.953125 0.34375 C 15.265625 0.34375 18.203125 -0.578125 20 -2.5625 C 19.203125 -4.46875 18.484375 -6.953125 18.484375 -6.953125 C 18.484375 -6.953125 16.859375 -4.125 12.828125 -4.125 C 9.234375 -4.125 6.0625 -6.484375 6.0625 -11.234375 C 6.0625 -16.03125 9.234375 -18.390625 12.828125 -18.390625 C 16.859375 -18.390625 18.484375 -15.578125 18.484375 -15.578125 C 18.484375 -15.578125 19.203125 -18.046875 20 -19.953125 C 18.203125 -21.9375 15.265625 -22.84375 11.953125 -22.84375 C 5.171875 -22.84375 0.8125 -17.640625 0.8125 -11.265625 C 0.8125 -4.875 5.171875 0.34375 11.953125 0.34375 Z M 11.953125 0.34375 "/></g></g></g><g fill="#ff5276" fill-opacity="1"><g transform="translate(269.071052, 25.145931)"><g><path d="M 2.453125 0 L 8.90625 0 C 7.4375 -1.9375 6.546875 -4.0625 6.203125 -6.71875 L 12.453125 -6.71875 L 12.453125 -2.890625 C 12.453125 -1.71875 12.171875 -0.46875 11.640625 0 L 18.515625 0 C 17.96875 -0.46875 17.6875 -1.75 17.6875 -2.921875 L 17.6875 -20.796875 C 17.015625 -22.046875 14.703125 -22.84375 12.546875 -22.84375 C 4.96875 -22.84375 0.8125 -15.953125 0.8125 -9.53125 C 0.8125 -5.734375 1.328125 -3.3125 2.453125 0 Z M 6.21875 -11.140625 C 6.6875 -14.21875 8.390625 -18.046875 12.46875 -18.046875 L 12.453125 -11.140625 Z M 6.21875 -11.140625 "/></g></g></g><g fill="#ff5276" fill-opacity="1"><g transform="translate(289.370742, 25.145931)"><g><path d="M 0.46875 0 L 8.140625 0 C 14.53125 0 18.28125 -4.875 18.28125 -11.234375 C 18.28125 -17.625 14.53125 -22.5 8.140625 -22.5 L 0.46875 -22.5 C 1 -22.03125 1.28125 -20.75 1.28125 -19.578125 L 1.28125 -2.921875 C 1.28125 -1.75 1 -0.46875 0.46875 0 Z M 6.53125 -4.421875 L 6.53125 -18.0625 L 8.625 -18.0625 C 11 -18.0625 13.03125 -15.484375 13.03125 -11.234375 C 13.03125 -7.015625 11 -4.421875 8.625 -4.421875 Z M 6.53125 -4.421875 "/></g></g></g><g fill="#ff5276" fill-opacity="1"><g transform="translate(310.020018, 25.145931)"><g><path d="M 11.953125 0.34375 C 15.265625 0.34375 18.203125 -0.578125 20 -2.5625 C 19.203125 -4.46875 18.484375 -6.953125 18.484375 -6.953125 C 18.484375 -6.953125 16.859375 -4.125 12.828125 -4.125 C 10.75 -4.125 8.8125 -4.921875 7.546875 -6.5 C 6.578125 -8.78125 8.828125 -9.84375 11.65625 -9.84375 C 13.46875 -9.84375 15.3125 -9.046875 16.25 -8.25 L 16.25 -13.40625 C 15.875 -14.109375 14.25 -14.703125 12.828125 -14.703125 C 9.109375 -14.703125 6.53125 -11.65625 6.78125 -7.734375 C 6.3125 -8.703125 6.0625 -9.859375 6.0625 -11.234375 C 6.0625 -16.03125 9.234375 -18.390625 12.828125 -18.390625 C 16.859375 -18.390625 18.484375 -15.578125 18.484375 -15.578125 C 18.484375 -15.578125 19.203125 -18.046875 20 -19.953125 C 18.203125 -21.9375 15.265625 -22.84375 11.953125 -22.84375 C 5.171875 -22.84375 0.8125 -17.640625 0.8125 -11.265625 C 0.8125 -4.875 5.171875 0.34375 11.953125 0.34375 Z M 11.953125 0.34375 "/></g></g></g><g fill="#ff5276" fill-opacity="1"><g transform="translate(331.57824, 25.145931)"><g><path d="M 7.34375 0 C 6.8125 -0.46875 6.53125 -1.75 6.53125 -2.921875 L 6.53125 -13.0625 L 11.703125 -0.65625 L 16.859375 -12.984375 L 16.859375 -2.921875 C 16.859375 -1.75 16.578125 -0.46875 16.03125 0 L 22.921875 0 C 22.375 -0.46875 22.09375 -1.71875 22.09375 -2.890625 L 22.09375 -19.609375 C 22.09375 -20.765625 22.375 -22.03125 22.921875 -22.5 L 16.859375 -22.5 L 11.703125 -10.625 L 6.53125 -22.5 L 0.46875 -22.5 C 1 -22.03125 1.28125 -20.765625 1.28125 -19.609375 L 1.28125 -2.890625 C 1.28125 -1.71875 1 -0.46875 0.46875 0 Z M 7.34375 0 "/></g></g></g><g fill="#ff5276" fill-opacity="1"><g transform="translate(356.515859, 25.145931)"><g><path d="M 0.234375 -22.5 C 1.03125 -21.984375 1.53125 -20.953125 2.171875 -19.71875 C 4.609375 -14.921875 5.59375 -12.515625 7.71875 -8.0625 L 7.71875 -2.921875 C 7.71875 -1.75 7.4375 -0.46875 6.90625 0 L 13.78125 0 C 13.234375 -0.46875 12.96875 -1.71875 12.96875 -2.890625 L 12.96875 -8.015625 C 15.078125 -12.46875 16.0625 -14.875 18.515625 -19.671875 C 19.140625 -20.90625 19.65625 -21.9375 20.4375 -22.453125 L 11.984375 -22.453125 C 12.546875 -21.75 12.640625 -21.21875 12.640625 -20.578125 C 12.640625 -18.765625 11.125 -14.9375 10.34375 -12.984375 C 9.5625 -14.984375 8.046875 -18.8125 8.046875 -20.625 C 8.046875 -21.265625 8.140625 -21.796875 8.703125 -22.5 Z M 0.234375 -22.5 "/></g></g></g></g></g></g></svg>