<svg xmlns="http://www.w3.org/2000/svg" xmlns:xlink="http://www.w3.org/1999/xlink" id="visual" width="900" height="675" version="1.1" viewBox="0 0 900 675"><rect width="900" height="675" x="0" y="0" fill="#FFF"/><defs><linearGradient id="grad1_0" x1="25%" x2="100%" y1="100%" y2="0%"><stop offset="23.333%" stop-color="#fff" stop-opacity="1"/><stop offset="76.667%" stop-color="#fff" stop-opacity="1"/></linearGradient></defs><defs><linearGradient id="grad2_0" x1="0%" x2="75%" y1="100%" y2="0%"><stop offset="23.333%" stop-color="#fff" stop-opacity="1"/><stop offset="76.667%" stop-color="#fff" stop-opacity="1"/></linearGradient></defs><g><path fill="#1757AB" d="M-337.5 0C-324.8 -39.1 -312.1 -78.3 -299.3 -124C-286.6 -169.7 -273.9 -222 -238.6 -238.6C-203.4 -255.3 -145.7 -236.2 -102.2 -246.7C-58.7 -257.2 -29.3 -297.3 0 -337.5L0 0Z" transform="translate(900, 675)"/></g><g><path fill="#1757AB" d="M337.5 0C325.7 40.3 313.8 80.6 300.3 124.4C286.7 168.2 271.3 215.4 238.6 238.6C206 261.9 155.9 261 113.3 273.5C70.6 285.9 35.3 311.7 0 337.5L0 0Z" transform="translate(0, 0)"/></g></svg>