<svg id="visual" viewBox="0 0 900 675" width="900" height="675" xmlns="http://www.w3.org/2000/svg" xmlns:xlink="http://www.w3.org/1999/xlink" version="1.1"><rect x="0" y="0" width="900" height="675" fill="#FFFFFF"></rect><defs><linearGradient id="grad1_0" x1="25%" y1="0%" x2="100%" y2="100%"><stop offset="23.333333333333336%" stop-color="#ffffff" stop-opacity="1"></stop><stop offset="76.66666666666666%" stop-color="#ffffff" stop-opacity="1"></stop></linearGradient></defs><defs><linearGradient id="grad2_0" x1="0%" y1="0%" x2="75%" y2="100%"><stop offset="23.333333333333336%" stop-color="#ffffff" stop-opacity="1"></stop><stop offset="76.66666666666666%" stop-color="#ffffff" stop-opacity="1"></stop></linearGradient></defs><g transform="translate(900, 0)"><path d="M0 365.6C-23.4 333.5 -46.8 301.5 -80.2 299.4C-113.7 297.4 -157.2 325.4 -182.8 316.6C-208.4 307.8 -216.2 262.2 -231.9 231.9C-247.7 201.7 -271.5 186.8 -284.9 164.5C-298.3 142.2 -301.3 112.5 -313 83.9C-324.7 55.2 -345.1 27.6 -365.6 0L0 0Z" fill="#1757AB"></path></g><g transform="translate(0, 675)"><path d="M0 -365.6C27.1 -347 54.1 -328.5 87 -324.6C119.8 -320.6 158.4 -331.4 182.8 -316.6C207.3 -301.9 217.6 -261.8 232.6 -232.6C247.7 -203.5 267.3 -185.4 282.3 -163C297.3 -140.6 307.6 -113.8 320.7 -85.9C333.8 -58 349.7 -29 365.6 0L0 0Z" fill="#1757AB"></path></g></svg>