<svg xmlns="http://www.w3.org/2000/svg" xmlns:xlink="http://www.w3.org/1999/xlink" id="visual" width="900" height="5" version="1.1" viewBox="0 0 900 675"><rect width="900" height="675" x="0" y="0" fill="#FFF"/><path fill="#1757ab" d="M0 663L10 656.2C20 649.3 40 635.7 60 629.7C80 623.7 100 625.3 120 631.3C140 637.3 160 647.7 180 649.5C200 651.3 220 644.7 240 637.5C260 630.3 280 622.7 300 622.8C320 623 340 631 360 636.7C380 642.3 400 645.7 420 643.8C440 642 460 635 480 633.7C500 632.3 520 636.7 540 635.5C560 634.3 580 627.7 600 625.3C620 623 640 625 660 629.7C680 634.3 700 641.7 720 644.2C740 646.7 760 644.3 780 641.3C800 638.3 820 634.7 840 637.7C860 640.7 880 650.3 890 655.2L900 660L900 676L890 676C880 676 860 676 840 676C820 676 800 676 780 676C760 676 740 676 720 676C700 676 680 676 660 676C640 676 620 676 600 676C580 676 560 676 540 676C520 676 500 676 480 676C460 676 440 676 420 676C400 676 380 676 360 676C340 676 320 676 300 676C280 676 260 676 240 676C220 676 200 676 180 676C160 676 140 676 120 676C100 676 80 676 60 676C40 676 20 676 10 676L0 676Z"/><path fill="#2a63af" d="M0 640L10 638.5C20 637 40 634 60 637.8C80 641.7 100 652.3 120 653.7C140 655 160 647 180 640.8C200 634.7 220 630.3 240 634C260 637.7 280 649.3 300 655C320 660.7 340 660.3 360 655.3C380 650.3 400 640.7 420 636.2C440 631.7 460 632.3 480 637.2C500 642 520 651 540 655C560 659 580 658 600 652.2C620 646.3 640 635.7 660 633.5C680 631.3 700 637.7 720 642.3C740 647 760 650 780 646.7C800 643.3 820 633.7 840 635C860 636.3 880 648.7 890 654.8L900 661L900 676L890 676C880 676 860 676 840 676C820 676 800 676 780 676C760 676 740 676 720 676C700 676 680 676 660 676C640 676 620 676 600 676C580 676 560 676 540 676C520 676 500 676 480 676C460 676 440 676 420 676C400 676 380 676 360 676C340 676 320 676 300 676C280 676 260 676 240 676C220 676 200 676 180 676C160 676 140 676 120 676C100 676 80 676 60 676C40 676 20 676 10 676L0 676Z"/><path fill="#346ab1" d="M0 659L10 657.5C20 656 40 653 60 651.8C80 650.7 100 651.3 120 651C140 650.7 160 649.3 180 651.8C200 654.3 220 660.7 240 660.3C260 660 280 653 300 647.7C320 642.3 340 638.7 360 641.5C380 644.3 400 653.7 420 657.5C440 661.3 460 659.7 480 656.3C500 653 520 648 540 645.2C560 642.3 580 641.7 600 643.3C620 645 640 649 660 652.5C680 656 700 659 720 657.7C740 656.3 760 650.7 780 648.8C800 647 820 649 840 647.7C860 646.3 880 641.7 890 639.3L900 637L900 676L890 676C880 676 860 676 840 676C820 676 800 676 780 676C760 676 740 676 720 676C700 676 680 676 660 676C640 676 620 676 600 676C580 676 560 676 540 676C520 676 500 676 480 676C460 676 440 676 420 676C400 676 380 676 360 676C340 676 320 676 300 676C280 676 260 676 240 676C220 676 200 676 180 676C160 676 140 676 120 676C100 676 80 676 60 676C40 676 20 676 10 676L0 676Z"/><path fill="#2a63af" d="M0 649L10 649.2C20 649.3 40 649.7 60 649.8C80 650 100 650 120 650.3C140 650.7 160 651.3 180 651.2C200 651 220 650 240 652.2C260 654.3 280 659.7 300 662.2C320 664.7 340 664.3 360 663.5C380 662.7 400 661.3 420 661.2C440 661 460 662 480 662.7C500 663.3 520 663.7 540 662.2C560 660.7 580 657.3 600 657.8C620 658.3 640 662.7 660 663C680 663.3 700 659.7 720 657C740 654.3 760 652.7 780 650.8C800 649 820 647 840 647.7C860 648.3 880 651.7 890 653.3L900 655L900 676L890 676C880 676 860 676 840 676C820 676 800 676 780 676C760 676 740 676 720 676C700 676 680 676 660 676C640 676 620 676 600 676C580 676 560 676 540 676C520 676 500 676 480 676C460 676 440 676 420 676C400 676 380 676 360 676C340 676 320 676 300 676C280 676 260 676 240 676C220 676 200 676 180 676C160 676 140 676 120 676C100 676 80 676 60 676C40 676 20 676 10 676L0 676Z"/><path fill="#1757ab" d="M0 670L10 669.7C20 669.3 40 668.7 60 668.8C80 669 100 670 120 669.3C140 668.7 160 666.3 180 664.2C200 662 220 660 240 658.3C260 656.7 280 655.3 300 655C320 654.7 340 655.3 360 657.5C380 659.7 400 663.3 420 665.8C440 668.3 460 669.7 480 669.7C500 669.7 520 668.3 540 666C560 663.7 580 660.3 600 659C620 657.7 640 658.3 660 659C680 659.7 700 660.3 720 662.5C740 664.7 760 668.3 780 667.7C800 667 820 662 840 660C860 658 880 659 890 659.5L900 660L900 676L890 676C880 676 860 676 840 676C820 676 800 676 780 676C760 676 740 676 720 676C700 676 680 676 660 676C640 676 620 676 600 676C580 676 560 676 540 676C520 676 500 676 480 676C460 676 440 676 420 676C400 676 380 676 360 676C340 676 320 676 300 676C280 676 260 676 240 676C220 676 200 676 180 676C160 676 140 676 120 676C100 676 80 676 60 676C40 676 20 676 10 676L0 676Z"/></svg>